  0
SECTION
  2
HEADER
  9
$ACADVER
  1
AC1024
  9
$ACADMAINTVER
 70
     6
  9
$DWGCODEPAGE
  3
UNDEFINED
  9
$INSBASE
 10
0.0
 20
0.0
 30
0.0
  9
$EXTMIN
 10
1.000000000000000E+20
 20
1.000000000000000E+20
 30
1.000000000000000E+20
  9
$EXTMAX
 10
-1.000000000000000E+20
 20
-1.000000000000000E+20
 30
-1.000000000000000E+20
  9
$LIMMIN
 10
0.0
 20
0.0
  9
$LIMMAX
 10
12.0
 20
9.0
  9
$ORTHOMODE
 70
     0
  9
$REGENMODE
 70
     1
  9
$FILLMODE
 70
     1
  9
$QTEXTMODE
 70
     0
  9
$MIRRTEXT
 70
     1
  9
$LTSCALE
 40
1.0
  9
$ATTMODE
 70
     1
  9
$TEXTSIZE
 40
0.2
  9
$TRACEWID
 40
0.05
  9
$TEXTSTYLE
  7
Standard
  9
$CLAYER
  8
0
  9
$CELTYPE
  6
ByLayer
  9
$CECOLOR
 62
   256
  9
$CELTSCALE
 40
1.0
  9
$DISPSILH
 70
     0
  9
$DIMSCALE
 40
1.0
  9
$DIMASZ
 40
0.18
  9
$DIMEXO
 40
0.0625
  9
$DIMDLI
 40
0.38
  9
$DIMRND
 40
0.0
  9
$DIMDLE
 40
0.0
  9
$DIMEXE
 40
0.18
  9
$DIMTP
 40
0.0
  9
$DIMTM
 40
0.0
  9
$DIMTXT
 40
0.18
  9
$DIMCEN
 40
0.09
  9
$DIMTSZ
 40
0.0
  9
$DIMTOL
 70
     0
  9
$DIMLIM
 70
     0
  9
$DIMTIH
 70
     1
  9
$DIMTOH
 70
     1
  9
$DIMSE1
 70
     0
  9
$DIMSE2
 70
     0
  9
$DIMTAD
 70
     0
  9
$DIMZIN
 70
     0
  9
$DIMBLK
  1

  9
$DIMASO
 70
     1
  9
$DIMSHO
 70
     1
  9
$DIMPOST
  1

  9
$DIMAPOST
  1

  9
$DIMALT
 70
     0
  9
$DIMALTD
 70
     2
  9
$DIMALTF
 40
25.4
  9
$DIMLFAC
 40
1.0
  9
$DIMTOFL
 70
     0
  9
$DIMTVP
 40
0.0
  9
$DIMTIX
 70
     0
  9
$DIMSOXD
 70
     0
  9
$DIMSAH
 70
     0
  9
$DIMBLK1
  1

  9
$DIMBLK2
  1

  9
$DIMSTYLE
  2
Standard
  9
$DIMCLRD
 70
     0
  9
$DIMCLRE
 70
     0
  9
$DIMCLRT
 70
     0
  9
$DIMTFAC
 40
1.0
  9
$DIMGAP
 40
0.09
  9
$DIMJUST
 70
     0
  9
$DIMSD1
 70
     0
  9
$DIMSD2
 70
     0
  9
$DIMTOLJ
 70
     1
  9
$DIMTZIN
 70
     0
  9
$DIMALTZ
 70
     0
  9
$DIMALTTZ
 70
     0
  9
$DIMUPT
 70
     0
  9
$DIMDEC
 70
     4
  9
$DIMTDEC
 70
     4
  9
$DIMALTU
 70
     2
  9
$DIMALTTD
 70
     2
  9
$DIMTXSTY
  7
Standard
  9
$DIMAUNIT
 70
     0
  9
$DIMADEC
 70
     0
  9
$DIMALTRND
 40
0.0
  9
$DIMAZIN
 70
     0
  9
$DIMDSEP
 70
    46
  9
$DIMATFIT
 70
     3
  9
$DIMFRAC
 70
     0
  9
$DIMLDRBLK
  1

  9
$DIMLUNIT
 70
     2
  9
$DIMLWD
 70
    -2
  9
$DIMLWE
 70
    -2
  9
$DIMTMOVE
 70
     0
  9
$DIMFXL
 40
1.0
  9
$DIMFXLON
 70
     0
  9
$DIMJOGANG
 40
0.7853981633974483
  9
$DIMTFILL
 70
     0
  9
$DIMTFILLCLR
 70
     0
  9
$DIMARCSYM
 70
     0
  9
$DIMLTYPE
  6

  9
$DIMLTEX1
  6

  9
$DIMLTEX2
  6

  9
$DIMTXTDIRECTION
 70
     0
  9
$LUNITS
 70
     2
  9
$LUPREC
 70
     4
  9
$SKETCHINC
 40
0.1
  9
$FILLETRAD
 40
0.5
  9
$AUNITS
 70
     0
  9
$AUPREC
 70
     0
  9
$MENU
  1
.
  9
$ELEVATION
 40
0.0
  9
$PELEVATION
 40
0.0
  9
$THICKNESS
 40
0.0
  9
$LIMCHECK
 70
     0
  9
$CHAMFERA
 40
0.5
  9
$CHAMFERB
 40
0.5
  9
$CHAMFERC
 40
1.0
  9
$CHAMFERD
 40
0.0
  9
$SKPOLY
 70
     0
  9
$TDCREATE
 40
2458737.517604155
  9
$TDUCREATE
 40
2458737.4759375
  9
$TDUPDATE
 40
2458737.517604155
  9
$TDUUPDATE
 40
2458737.4759375
  9
$TDINDWG
 40
0.0000000116
  9
$TDUSRTIMER
 40
0.0000000116
  9
$USRTIMER
 70
     1
  9
$ANGBASE
 50
0.0
  9
$ANGDIR
 70
     0
  9
$PDMODE
 70
     0
  9
$PDSIZE
 40
0.0
  9
$PLINEWID
 40
0.0
  9
$SPLFRAME
 70
     0
  9
$SPLINETYPE
 70
     6
  9
$SPLINESEGS
 70
     8
  9
$HANDSEED
  5
12B
  9
$SURFTAB1
 70
     6
  9
$SURFTAB2
 70
     6
  9
$SURFTYPE
 70
     6
  9
$SURFU
 70
     6
  9
$SURFV
 70
     6
  9
$UCSBASE
  2

  9
$UCSNAME
  2

  9
$UCSORG
 10
0.0
 20
0.0
 30
0.0
  9
$UCSXDIR
 10
1.0
 20
0.0
 30
0.0
  9
$UCSYDIR
 10
0.0
 20
1.0
 30
0.0
  9
$UCSORTHOREF
  2

  9
$UCSORTHOVIEW
 70
     0
  9
$UCSORGTOP
 10
0.0
 20
0.0
 30
0.0
  9
$UCSORGBOTTOM
 10
0.0
 20
0.0
 30
0.0
  9
$UCSORGLEFT
 10
0.0
 20
0.0
 30
0.0
  9
$UCSORGRIGHT
 10
0.0
 20
0.0
 30
0.0
  9
$UCSORGFRONT
 10
0.0
 20
0.0
 30
0.0
  9
$UCSORGBACK
 10
0.0
 20
0.0
 30
0.0
  9
$PUCSBASE
  2

  9
$PUCSNAME
  2

  9
$PUCSORG
 10
0.0
 20
0.0
 30
0.0
  9
$PUCSXDIR
 10
1.0
 20
0.0
 30
0.0
  9
$PUCSYDIR
 10
0.0
 20
1.0
 30
0.0
  9
$PUCSORTHOREF
  2

  9
$PUCSORTHOVIEW
 70
     0
  9
$PUCSORGTOP
 10
0.0
 20
0.0
 30
0.0
  9
$PUCSORGBOTTOM
 10
0.0
 20
0.0
 30
0.0
  9
$PUCSORGLEFT
 10
0.0
 20
0.0
 30
0.0
  9
$PUCSORGRIGHT
 10
0.0
 20
0.0
 30
0.0
  9
$PUCSORGFRONT
 10
0.0
 20
0.0
 30
0.0
  9
$PUCSORGBACK
 10
0.0
 20
0.0
 30
0.0
  9
$USERI1
 70
     0
  9
$USERI2
 70
     0
  9
$USERI3
 70
     0
  9
$USERI4
 70
     0
  9
$USERI5
 70
     0
  9
$USERR1
 40
0.0
  9
$USERR2
 40
0.0
  9
$USERR3
 40
0.0
  9
$USERR4
 40
0.0
  9
$USERR5
 40
0.0
  9
$WORLDVIEW
 70
     1
  9
$SHADEDGE
 70
     3
  9
$SHADEDIF
 70
    70
  9
$TILEMODE
 70
     1
  9
$MAXACTVP
 70
    64
  9
$PINSBASE
 10
0.0
 20
0.0
 30
0.0
  9
$PLIMCHECK
 70
     0
  9
$PEXTMIN
 10
1.000000000000000E+20
 20
1.000000000000000E+20
 30
1.000000000000000E+20
  9
$PEXTMAX
 10
-1.000000000000000E+20
 20
-1.000000000000000E+20
 30
-1.000000000000000E+20
  9
$PLIMMIN
 10
0.0
 20
0.0
  9
$PLIMMAX
 10
12.0
 20
9.0
  9
$UNITMODE
 70
     0
  9
$VISRETAIN
 70
     1
  9
$PLINEGEN
 70
     0
  9
$PSLTSCALE
 70
     1
  9
$TREEDEPTH
 70
  3020
  9
$CMLSTYLE
  2
Standard
  9
$CMLJUST
 70
     0
  9
$CMLSCALE
 40
1.0
  9
$PROXYGRAPHICS
 70
     1
  9
$MEASUREMENT
 70
     0
  9
$CELWEIGHT
370
    -1
  9
$ENDCAPS
280
     0
  9
$JOINSTYLE
280
     0
  9
$LWDISPLAY
290
     1
  9
$INSUNITS
 70
     1
  9
$HYPERLINKBASE
  1

  9
$STYLESHEET
  1

  9
$XEDIT
290
     1
  9
$CEPSNTYPE
380
     0
  9
$PSTYLEMODE
290
     1
  9
$FINGERPRINTGUID
  2
{80A90DD2-4AA2-2449-728B-56082ECBA4EA}
  9
$VERSIONGUID
  2
{FAEB1C32-E019-11D5-929B-00C0DF256EC4}
  9
$EXTNAMES
290
     1
  9
$PSVPSCALE
 40
0.0
  9
$OLESTARTUP
290
     0
  9
$SORTENTS
280
   127
  9
$INDEXCTL
280
     0
  9
$HIDETEXT
280
     1
  9
$XCLIPFRAME
280
     2
  9
$HALOGAP
280
     0
  9
$OBSCOLOR
 70
   257
  9
$OBSLTYPE
280
     0
  9
$INTERSECTIONDISPLAY
280
     0
  9
$INTERSECTIONCOLOR
 70
   257
  9
$DIMASSOC
280
     2
  9
$PROJECTNAME
  1

  9
$CAMERADISPLAY
290
     0
  9
$LENSLENGTH
 40
50.0
  9
$CAMERAHEIGHT
 40
0.0
  9
$STEPSPERSEC
 40
2.0
  9
$STEPSIZE
 40
6.0
  9
$3DDWFPREC
 40
2.0
  9
$PSOLWIDTH
 40
0.25
  9
$PSOLHEIGHT
 40
4.0
  9
$LOFTANG1
 40
1.570796326794897
  9
$LOFTANG2
 40
1.570796326794897
  9
$LOFTMAG1
 40
0.0
  9
$LOFTMAG2
 40
0.0
  9
$LOFTPARAM
 70
     7
  9
$LOFTNORMALS
280
     1
  9
$LATITUDE
 40
37.795
  9
$LONGITUDE
 40
-122.394
  9
$NORTHDIRECTION
 40
0.0
  9
$TIMEZONE
 70
 -8000
  9
$LIGHTGLYPHDISPLAY
280
     1
  9
$TILEMODELIGHTSYNCH
280
     1
  9
$CMATERIAL
347
3C
  9
$SOLIDHIST
280
     1
  9
$SHOWHIST
280
     1
  9
$DWFFRAME
280
     2
  9
$DGNFRAME
280
     2
  9
$REALWORLDSCALE
290
     1
  9
$INTERFERECOLOR
 62
   256
  9
$CSHADOW
280
     0
  9
$SHADOWPLANELOCATION
 40
0.0
  0
ENDSEC
  0
SECTION
  2
CLASSES
  0
CLASS
  1
ACDBDICTIONARYWDFLT
  2
AcDbDictionaryWithDefault
  3
ObjectDBX Classes
 90
        0
 91
        4
280
     0
281
     0
  0
CLASS
  1
VISUALSTYLE
  2
AcDbVisualStyle
  3
ObjectDBX Classes
 90
     4095
 91
        4
280
     0
281
     0
  0
CLASS
  1
MATERIAL
  2
AcDbMaterial
  3
ObjectDBX Classes
 90
     1153
 91
        4
280
     0
281
     0
  0
CLASS
  1
SUN
  2
AcDbSun
  3
SCENEOE
 90
     1024
 91
        4
280
     0
281
     0
  0
ENDSEC
  0
SECTION
  2
TABLES
  0
TABLE
  2
VPORT
  5
8
330
0
100
AcDbSymbolTable
 70
     1
  0
VPORT
  5
29
330
8
100
AcDbSymbolTableRecord
100
AcDbViewportTableRecord
  2
*Active
 70
     0
 10
0.0
 20
0.0
 11
1.0
 21
1.0
 12
0.0
 22
0.0
 13
0.0
 23
0.0
 14
0.5
 24
0.5
 15
0.5
 25
0.5
 16
0.0
 26
0.0
 36
1.0
 17
104.8785054625373
 27
139.8407469062934
 37
0.0
 40
5770.059668551243
 41
1.0
 42
50.0
 43
0.0
 44
0.0
 50
0.0
 51
0.0
 71
     0
 72
   100
 73
     1
 74
     3
 75
     0
 76
     0
 77
     0
 78
     0
281
     0
 65
     1
110
0.0
120
0.0
130
0.0
111
1.0
121
0.0
131
0.0
112
0.0
122
1.0
132
0.0
 79
     0
146
0.0
 60
     3
 61
     5
292
     1
282
     1
141
0.0
142
0.0
 63
   250
361
3F
  0
ENDTAB
  0
TABLE
  2
LTYPE
  5
5
330
0
100
AcDbSymbolTable
 70
     1
  0
LTYPE
  5
14
330
5
100
AcDbSymbolTableRecord
100
AcDbLinetypeTableRecord
  2
ByBlock
 70
     0
  3

 72
    65
 73
     0
 40
0.0
  0
LTYPE
  5
15
330
5
100
AcDbSymbolTableRecord
100
AcDbLinetypeTableRecord
  2
ByLayer
 70
     0
  3

 72
    65
 73
     0
 40
0.0
  0
LTYPE
  5
16
330
5
100
AcDbSymbolTableRecord
100
AcDbLinetypeTableRecord
  2
Continuous
 70
     0
  3
Solid line
 72
    65
 73
     0
 40
0.0
  0
ENDTAB
  0
TABLE
  2
LAYER
  5
2
330
0
100
AcDbSymbolTable
 70
     3
  0
LAYER
  5
10
330
2
100
AcDbSymbolTableRecord
100
AcDbLayerTableRecord
  2
0
 70
     5
 62
     7
  6
Continuous
370
    -3
390
F
347
3E
  0
LAYER
  5
40
330
2
100
AcDbSymbolTableRecord
100
AcDbLayerTableRecord
  2
Layer 2
 70
     5
 62
     7
  6
Continuous
370
    -3
390
F
347
3E
  0
LAYER
  5
41
330
2
100
AcDbSymbolTableRecord
100
AcDbLayerTableRecord
  2
Layer 3
 70
     0
 62
     7
  6
Continuous
370
    -3
390
F
347
3E
  0
ENDTAB
  0
TABLE
  2
STYLE
  5
3
330
0
100
AcDbSymbolTable
 70
     1
  0
STYLE
  5
11
330
3
100
AcDbSymbolTableRecord
100
AcDbTextStyleTableRecord
  2
Standard
 70
     0
 40
0.0
 41
1.0
 50
0.0
 71
     0
 42
0.2
  3
txt
  4

  0
ENDTAB
  0
TABLE
  2
VIEW
  5
6
330
0
100
AcDbSymbolTable
 70
     0
  0
ENDTAB
  0
TABLE
  2
UCS
  5
7
330
0
100
AcDbSymbolTable
 70
     0
  0
ENDTAB
  0
TABLE
  2
APPID
  5
9
330
0
100
AcDbSymbolTable
 70
     1
  0
APPID
  5
12
330
9
100
AcDbSymbolTableRecord
100
AcDbRegAppTableRecord
  2
ACAD
 70
     0
  0
ENDTAB
  0
TABLE
  2
DIMSTYLE
  5
A
330
0
100
AcDbSymbolTable
 70
     1
100
AcDbDimStyleTable
  0
DIMSTYLE
105
27
330
A
100
AcDbSymbolTableRecord
100
AcDbDimStyleTableRecord
  2
Standard
 70
     0
178
     0
340
11
  0
ENDTAB
  0
TABLE
  2
BLOCK_RECORD
  5
1
330
0
100
AcDbSymbolTable
 70
     1
  0
BLOCK_RECORD
  5
1F
330
1
100
AcDbSymbolTableRecord
100
AcDbBlockTableRecord
  2
*Model_Space
340
22
 70
     0
280
     1
281
     0
  0
BLOCK_RECORD
  5
1B
330
1
100
AcDbSymbolTableRecord
100
AcDbBlockTableRecord
  2
*Paper_Space
340
1E
 70
     0
280
     1
281
     0
  0
BLOCK_RECORD
  5
23
330
1
100
AcDbSymbolTableRecord
100
AcDbBlockTableRecord
  2
*Paper_Space0
340
26
 70
     0
280
     1
281
     0
  0
ENDTAB
  0
ENDSEC
  0
SECTION
  2
BLOCKS
  0
BLOCK
  5
20
330
1F
100
AcDbEntity
  8
0
100
AcDbBlockBegin
  2
*Model_Space
 70
     0
 10
0.0
 20
0.0
 30
0.0
  3
*Model_Space
  1

  0
ENDBLK
  5
21
330
1F
100
AcDbEntity
  8
0
100
AcDbBlockEnd
  0
BLOCK
  5
1C
330
1B
100
AcDbEntity
 67
     1
  8
0
100
AcDbBlockBegin
  2
*Paper_Space
 70
     0
 10
0.0
 20
0.0
 30
0.0
  3
*Paper_Space
  1

  0
ENDBLK
  5
1D
330
1B
100
AcDbEntity
 67
     1
  8
0
100
AcDbBlockEnd
  0
BLOCK
  5
24
330
23
100
AcDbEntity
  8
0
100
AcDbBlockBegin
  2
*Paper_Space0
 70
     0
 10
0.0
 20
0.0
 30
0.0
  3
*Paper_Space0
  1

  0
ENDBLK
  5
25
330
23
100
AcDbEntity
  8
0
100
AcDbBlockEnd
  0
ENDSEC
  0
SECTION
  2
ENTITIES
  0
POLYLINE
  5
42
330
1F
100
AcDbEntity
  8
Layer 3
370
     0
100
AcDb2dPolyline
 66
     1
 10
0.0
 20
0.0
 30
0.0
  0
VERTEX
  5
43
330
42
100
AcDbEntity
  8
Layer 3
370
     0
100
AcDbVertex
100
AcDb2dVertex
 10
-1353.387262189999
 20
625.3201702038733
 30
0.0
  0
VERTEX
  5
44
330
42
100
AcDbEntity
  8
Layer 3
370
     0
100
AcDbVertex
100
AcDb2dVertex
 10
-1246.272544584649
 20
773.0646284695184
 30
0.0
  0
VERTEX
  5
45
330
42
100
AcDbEntity
  8
Layer 3
370
     0
100
AcDbVertex
100
AcDb2dVertex
 10
-1625.967076476275
 20
1019.240204091562
 30
0.0
  0
VERTEX
  5
46
330
42
100
AcDbEntity
  8
Layer 3
370
     0
100
AcDbVertex
100
AcDb2dVertex
 10
-1600.932272175728
 20
1052.619943158958
 30
0.0
  0
VERTEX
  5
47
330
42
100
AcDbEntity
  8
Layer 3
370
     0
100
AcDbVertex
100
AcDb2dVertex
 10
-1588.414870025455
 20
1695.179920206324
 30
0.0
  0
VERTEX
  5
48
330
42
100
AcDbEntity
  8
Layer 3
370
     0
100
AcDbVertex
100
AcDb2dVertex
 10
-1901.34992378229
 20
1657.627713755504
 30
0.0
  0
VERTEX
  5
49
330
42
100
AcDbEntity
  8
Layer 3
370
     0
100
AcDbVertex
100
AcDb2dVertex
 10
-2001.489140984477
 20
1695.179920206324
 30
0.0
  0
VERTEX
  5
4A
330
42
100
AcDbEntity
  8
Layer 3
370
     0
100
AcDbVertex
100
AcDb2dVertex
 10
-2105.800825570088
 20
1419.79707290031
 30
0.0
  0
VERTEX
  5
4B
330
42
100
AcDbEntity
  8
Layer 3
370
     0
100
AcDbVertex
100
AcDb2dVertex
 10
-2168.387836321455
 20
1294.623051397576
 30
0.0
  0
VERTEX
  5
4C
330
42
100
AcDbEntity
  8
Layer 3
370
     0
100
AcDbVertex
100
AcDb2dVertex
 10
-2193.422640622002
 20
1236.208508029633
 30
0.0
  0
VERTEX
  5
4D
330
42
100
AcDbEntity
  8
Layer 3
370
     0
100
AcDbVertex
100
AcDb2dVertex
 10
-1742.79616321216
 20
806.444367536914
 30
0.0
  0
VERTEX
  5
4E
330
42
100
AcDbEntity
  8
Layer 3
370
     0
100
AcDbVertex
100
AcDb2dVertex
 10
-1623.823721160112
 20
707.9102706744163
 30
0.0
  0
VERTEX
  5
4F
330
42
100
AcDbEntity
  8
Layer 3
370
     0
100
AcDbVertex
100
AcDb2dVertex
 10
-1353.387262189999
 20
625.3201702038733
 30
0.0
  0
SEQEND
  5
51
330
42
100
AcDbEntity
  8
Layer 3
370
     0
  0
HATCH
  5
50
330
1F
100
AcDbEntity
  8
Layer 3
 62
     7
420
 16777215
100
AcDbHatch
 10
0.0
 20
0.0
 30
0.0
210
0.0
220
0.0
230
1.0
  2
SOLID
 70
     1
 71
     0
 91
        1
 92
        1
 93
       12
 72
     1
 10
-1353.387262189999
 20
625.3201702038733
 11
-1246.272544584649
 21
773.0646284695184
 72
     1
 10
-1246.272544584649
 20
773.0646284695184
 11
-1625.967076476275
 21
1019.240204091562
 72
     1
 10
-1625.967076476275
 20
1019.240204091562
 11
-1600.932272175728
 21
1052.619943158958
 72
     1
 10
-1600.932272175728
 20
1052.619943158958
 11
-1588.414870025455
 21
1695.179920206324
 72
     1
 10
-1588.414870025455
 20
1695.179920206324
 11
-1901.34992378229
 21
1657.627713755504
 72
     1
 10
-1901.34992378229
 20
1657.627713755504
 11
-2001.489140984477
 21
1695.179920206324
 72
     1
 10
-2001.489140984477
 20
1695.179920206324
 11
-2105.800825570088
 21
1419.79707290031
 72
     1
 10
-2105.800825570088
 20
1419.79707290031
 11
-2168.387836321455
 21
1294.623051397576
 72
     1
 10
-2168.387836321455
 20
1294.623051397576
 11
-2193.422640622002
 21
1236.208508029633
 72
     1
 10
-2193.422640622002
 20
1236.208508029633
 11
-1742.79616321216
 21
806.444367536914
 72
     1
 10
-1742.79616321216
 20
806.444367536914
 11
-1623.823721160112
 21
707.9102706744163
 72
     1
 10
-1623.823721160112
 20
707.9102706744163
 11
-1353.387262189999
 21
625.3201702038733
 97
        0
 75
     0
 76
     1
 98
        0
  0
POLYLINE
  5
52
330
1F
100
AcDbEntity
  8
Layer 3
370
     0
100
AcDb2dPolyline
 66
     1
 10
0.0
 20
0.0
 30
0.0
  0
VERTEX
  5
53
330
52
100
AcDbEntity
  8
Layer 3
370
     0
100
AcDbVertex
100
AcDb2dVertex
 10
-2117.237933346506
 20
1163.550848035856
 30
0.0
  0
VERTEX
  5
54
330
52
100
AcDbEntity
  8
Layer 3
370
     0
100
AcDbVertex
100
AcDb2dVertex
 10
-1742.79616321216
 20
806.444367536914
 30
0.0
  0
VERTEX
  5
55
330
52
100
AcDbEntity
  8
Layer 3
370
     0
100
AcDbVertex
100
AcDb2dVertex
 10
-2110.93954090194
 20
161.6306803653678
 30
0.0
  0
VERTEX
  5
56
330
52
100
AcDbEntity
  8
Layer 3
370
     0
100
AcDbVertex
100
AcDb2dVertex
 10
-2163.086663194827
 20
-727.9378763956478
 30
0.0
  0
VERTEX
  5
57
330
52
100
AcDbEntity
  8
Layer 3
370
     0
100
AcDbVertex
100
AcDb2dVertex
 10
-2138.546840939351
 20
-798.4898653801419
 30
0.0
  0
VERTEX
  5
58
330
52
100
AcDbEntity
  8
Layer 3
370
     0
100
AcDbVertex
100
AcDb2dVertex
 10
-1791.921851580749
 20
-1181.924588121959
 30
0.0
  0
VERTEX
  5
59
330
52
100
AcDbEntity
  8
Layer 3
370
     0
100
AcDbVertex
100
AcDb2dVertex
 10
-1234.96484306657
 20
-1311.178237149329
 30
0.0
  0
VERTEX
  5
5A
330
52
100
AcDbEntity
  8
Layer 3
370
     0
100
AcDbVertex
100
AcDb2dVertex
 10
-1242.908529854011
 20
-956.3602273103081
 30
0.0
  0
VERTEX
  5
5B
330
52
100
AcDbEntity
  8
Layer 3
370
     0
100
AcDbVertex
100
AcDb2dVertex
 10
-1609.642069874194
 20
-875.5994116379927
 30
0.0
  0
VERTEX
  5
5C
330
52
100
AcDbEntity
  8
Layer 3
370
     0
100
AcDbVertex
100
AcDb2dVertex
 10
-1759.248171037662
 20
-724.6693626766179
 30
0.0
  0
VERTEX
  5
5D
330
52
100
AcDbEntity
  8
Layer 3
370
     0
100
AcDbVertex
100
AcDb2dVertex
 10
-1671.867616375813
 20
-671.7114507603461
 30
0.0
  0
VERTEX
  5
5E
330
52
100
AcDbEntity
  8
Layer 3
370
     0
100
AcDbVertex
100
AcDb2dVertex
 10
-1640.09286922605
 20
-690.2467199310411
 30
0.0
  0
VERTEX
  5
5F
330
52
100
AcDbEntity
  8
Layer 3
370
     0
100
AcDbVertex
100
AcDb2dVertex
 10
-1532.8530975956
 20
-714.0777802933634
 30
0.0
  0
VERTEX
  5
60
330
52
100
AcDbEntity
  8
Layer 3
370
     0
100
AcDbVertex
100
AcDb2dVertex
 10
-1421.641482571429
 20
-714.0777802933634
 30
0.0
  0
VERTEX
  5
61
330
52
100
AcDbEntity
  8
Layer 3
370
     0
100
AcDbVertex
100
AcDb2dVertex
 10
-1375.303309644691
 20
-665.0917117708121
 30
0.0
  0
VERTEX
  5
62
330
52
100
AcDbEntity
  8
Layer 3
370
     0
100
AcDbVertex
100
AcDb2dVertex
 10
-1354.120144878182
 20
-675.6832941540661
 30
0.0
  0
VERTEX
  5
63
330
52
100
AcDbEntity
  8
Layer 3
370
     0
100
AcDbVertex
100
AcDb2dVertex
 10
-1164.79560977751
 20
-674.3593463561596
 30
0.0
  0
VERTEX
  5
64
330
52
100
AcDbEntity
  8
Layer 3
370
     0
100
AcDbVertex
100
AcDb2dVertex
 10
-1032.400829986831
 20
-691.570667728948
 30
0.0
  0
VERTEX
  5
65
330
52
100
AcDbEntity
  8
Layer 3
370
     0
100
AcDbVertex
100
AcDb2dVertex
 10
-923.8371105584733
 20
-755.1201620284743
 30
0.0
  0
VERTEX
  5
66
330
52
100
AcDbEntity
  8
Layer 3
370
     0
100
AcDbVertex
100
AcDb2dVertex
 10
-660.371498775021
 20
-1587.883326911848
 30
0.0
  0
VERTEX
  5
67
330
52
100
AcDbEntity
  8
Layer 3
370
     0
100
AcDbVertex
100
AcDb2dVertex
 10
-1019.161352007763
 20
-1708.362576521366
 30
0.0
  0
VERTEX
  5
68
330
52
100
AcDbEntity
  8
Layer 3
370
     0
100
AcDbVertex
100
AcDb2dVertex
 10
-1093.302428690543
 20
-1720.278106702527
 30
0.0
  0
VERTEX
  5
69
330
52
100
AcDbEntity
  8
Layer 3
370
     0
100
AcDbVertex
100
AcDb2dVertex
 10
-1596.402591895126
 20
-1676.587829371603
 30
0.0
  0
VERTEX
  5
6A
330
52
100
AcDbEntity
  8
Layer 3
370
     0
100
AcDbVertex
100
AcDb2dVertex
 10
-1693.050781142322
 20
-1628.925708646958
 30
0.0
  0
VERTEX
  5
6B
330
52
100
AcDbEntity
  8
Layer 3
370
     0
100
AcDbVertex
100
AcDb2dVertex
 10
-1747.332640856501
 20
-1570.672005539059
 30
0.0
  0
VERTEX
  5
6C
330
52
100
AcDbEntity
  8
Layer 3
370
     0
100
AcDbVertex
100
AcDb2dVertex
 10
-1820.149769741374
 20
-1467.404077302329
 30
0.0
  0
VERTEX
  5
6D
330
52
100
AcDbEntity
  8
Layer 3
370
     0
100
AcDbVertex
100
AcDb2dVertex
 10
-2039.925104193903
 20
-1284.699281191192
 30
0.0
  0
VERTEX
  5
6E
330
52
100
AcDbEntity
  8
Layer 3
370
     0
100
AcDbVertex
100
AcDb2dVertex
 10
-2083.615381524827
 20
-1274.107698807937
 30
0.0
  0
VERTEX
  5
6F
330
52
100
AcDbEntity
  8
Layer 3
370
     0
100
AcDbVertex
100
AcDb2dVertex
 10
-2136.573293441099
 20
-1272.783751010031
 30
0.0
  0
VERTEX
  5
70
330
52
100
AcDbEntity
  8
Layer 3
370
     0
100
AcDbVertex
100
AcDb2dVertex
 10
-2193.422640622002
 20
-1252.924534041429
 30
0.0
  0
VERTEX
  5
71
330
52
100
AcDbEntity
  8
Layer 3
370
     0
100
AcDbVertex
100
AcDb2dVertex
 10
-2213.362265719693
 20
-1225.121630285386
 30
0.0
  0
VERTEX
  5
72
330
52
100
AcDbEntity
  8
Layer 3
370
     0
100
AcDbVertex
100
AcDb2dVertex
 10
-2231.897534890388
 20
-1132.445284431911
 30
0.0
  0
VERTEX
  5
73
330
52
100
AcDbEntity
  8
Layer 3
370
     0
100
AcDbVertex
100
AcDb2dVertex
 10
-2264.996229838058
 20
-1095.374746090519
 30
0.0
  0
VERTEX
  5
74
330
52
100
AcDbEntity
  8
Layer 3
370
     0
100
AcDbVertex
100
AcDb2dVertex
 10
-2298.094924785728
 20
-1063.599998940757
 30
0.0
  0
VERTEX
  5
75
330
52
100
AcDbEntity
  8
Layer 3
370
     0
100
AcDbVertex
100
AcDb2dVertex
 10
-2347.08099330828
 20
-1042.416834174248
 30
0.0
  0
VERTEX
  5
76
330
52
100
AcDbEntity
  8
Layer 3
370
     0
100
AcDbVertex
100
AcDb2dVertex
 10
-2377.531792660136
 20
-1007.994191428671
 30
0.0
  0
VERTEX
  5
77
330
52
100
AcDbEntity
  8
Layer 3
370
     0
100
AcDbVertex
100
AcDb2dVertex
 10
-2389.447322841297
 20
-953.7123317144927
 30
0.0
  0
VERTEX
  5
78
330
52
100
AcDbEntity
  8
Layer 3
370
     0
100
AcDbVertex
100
AcDb2dVertex
 10
-2368.264158074788
 20
-917.9657411710094
 30
0.0
  0
VERTEX
  5
79
330
52
100
AcDbEntity
  8
Layer 3
370
     0
100
AcDbVertex
100
AcDb2dVertex
 10
-2319.278089552237
 20
-892.8107330107799
 30
0.0
  0
VERTEX
  5
7A
330
52
100
AcDbEntity
  8
Layer 3
370
     0
100
AcDbVertex
100
AcDb2dVertex
 10
-2357.672575691534
 20
-743.2046318473122
 30
0.0
  0
VERTEX
  5
7B
330
52
100
AcDbEntity
  8
Layer 3
370
     0
100
AcDbVertex
100
AcDb2dVertex
 10
-2339.137306520839
 20
-733.9369972619647
 30
0.0
  0
VERTEX
  5
7C
330
52
100
AcDbEntity
  8
Layer 3
370
     0
100
AcDbVertex
100
AcDb2dVertex
 10
-2585.391596931503
 20
-152.7239139808825
 30
0.0
  0
VERTEX
  5
7D
330
52
100
AcDbEntity
  8
Layer 3
370
     0
100
AcDbVertex
100
AcDb2dVertex
 10
-2537.729476206858
 20
78.96695065280636
 30
0.0
  0
VERTEX
  5
7E
330
52
100
AcDbEntity
  8
Layer 3
370
     0
100
AcDbVertex
100
AcDb2dVertex
 10
-2516.546311440349
 20
153.1080273355871
 30
0.0
  0
VERTEX
  5
7F
330
52
100
AcDbEntity
  8
Layer 3
370
     0
100
AcDbVertex
100
AcDb2dVertex
 10
-2117.237933346506
 20
1163.550848035856
 30
0.0
  0
SEQEND
  5
81
330
52
100
AcDbEntity
  8
Layer 3
370
     0
  0
HATCH
  5
80
330
1F
100
AcDbEntity
  8
Layer 3
 62
     7
420
 16777215
100
AcDbHatch
 10
0.0
 20
0.0
 30
0.0
210
0.0
220
0.0
230
1.0
  2
SOLID
 70
     1
 71
     0
 91
        1
 92
        1
 93
       44
 72
     1
 10
-2117.237933346506
 20
1163.550848035856
 11
-1742.79616321216
 21
806.4443675369141
 72
     1
 10
-1742.79616321216
 20
806.444367536914
 11
-2110.93954090194
 21
161.6306803653678
 72
     1
 10
-2110.93954090194
 20
161.6306803653678
 11
-2163.086663194827
 21
-727.9378763956478
 72
     1
 10
-2163.086663194827
 20
-727.9378763956478
 11
-2138.546840939351
 21
-798.4898653801419
 72
     1
 10
-2138.546840939351
 20
-798.4898653801419
 11
-1791.921851580749
 21
-1181.924588121959
 72
     1
 10
-1791.921851580749
 20
-1181.924588121959
 11
-1234.96484306657
 21
-1311.178237149329
 72
     1
 10
-1234.96484306657
 20
-1311.178237149329
 11
-1242.908529854011
 21
-956.3602273103081
 72
     1
 10
-1242.908529854011
 20
-956.3602273103081
 11
-1609.642069874194
 21
-875.5994116379928
 72
     1
 10
-1609.642069874194
 20
-875.5994116379927
 11
-1759.248171037662
 21
-724.6693626766179
 72
     1
 10
-1759.248171037662
 20
-724.6693626766179
 11
-1671.867616375813
 21
-671.7114507603461
 72
     1
 10
-1671.867616375813
 20
-671.7114507603461
 11
-1640.09286922605
 21
-690.246719931041
 72
     1
 10
-1640.09286922605
 20
-690.2467199310411
 11
-1532.8530975956
 21
-714.0777802933635
 72
     1
 10
-1532.8530975956
 20
-714.0777802933634
 11
-1421.641482571429
 21
-714.0777802933634
 72
     1
 10
-1421.641482571429
 20
-714.0777802933634
 11
-1375.303309644691
 21
-665.0917117708121
 72
     1
 10
-1375.303309644691
 20
-665.0917117708121
 11
-1354.120144878182
 21
-675.683294154066
 72
     1
 10
-1354.120144878182
 20
-675.6832941540661
 11
-1164.79560977751
 21
-674.3593463561597
 72
     1
 10
-1164.79560977751
 20
-674.3593463561596
 11
-1032.400829986831
 21
-691.570667728948
 72
     1
 10
-1032.400829986831
 20
-691.570667728948
 11
-923.8371105584732
 21
-755.1201620284743
 72
     1
 10
-923.8371105584733
 20
-755.1201620284743
 11
-660.371498775021
 21
-1587.883326911848
 72
     1
 10
-660.371498775021
 20
-1587.883326911848
 11
-1019.161352007763
 21
-1708.362576521366
 72
     1
 10
-1019.161352007763
 20
-1708.362576521366
 11
-1093.302428690543
 21
-1720.278106702527
 72
     1
 10
-1093.302428690543
 20
-1720.278106702527
 11
-1596.402591895126
 21
-1676.587829371603
 72
     1
 10
-1596.402591895126
 20
-1676.587829371603
 11
-1693.050781142322
 21
-1628.925708646958
 72
     1
 10
-1693.050781142322
 20
-1628.925708646958
 11
-1747.332640856501
 21
-1570.672005539059
 72
     1
 10
-1747.332640856501
 20
-1570.672005539059
 11
-1820.149769741374
 21
-1467.404077302329
 72
     1
 10
-1820.149769741374
 20
-1467.404077302329
 11
-2039.925104193903
 21
-1284.699281191192
 72
     1
 10
-2039.925104193903
 20
-1284.699281191192
 11
-2083.615381524827
 21
-1274.107698807937
 72
     1
 10
-2083.615381524827
 20
-1274.107698807937
 11
-2136.573293441099
 21
-1272.783751010031
 72
     1
 10
-2136.573293441099
 20
-1272.783751010031
 11
-2193.422640622002
 21
-1252.924534041429
 72
     1
 10
-2193.422640622002
 20
-1252.924534041429
 11
-2213.362265719693
 21
-1225.121630285386
 72
     1
 10
-2213.362265719693
 20
-1225.121630285386
 11
-2231.897534890388
 21
-1132.445284431911
 72
     1
 10
-2231.897534890388
 20
-1132.445284431911
 11
-2264.996229838058
 21
-1095.374746090519
 72
     1
 10
-2264.996229838058
 20
-1095.374746090519
 11
-2298.094924785728
 21
-1063.599998940757
 72
     1
 10
-2298.094924785728
 20
-1063.599998940757
 11
-2347.08099330828
 21
-1042.416834174248
 72
     1
 10
-2347.08099330828
 20
-1042.416834174248
 11
-2377.531792660136
 21
-1007.994191428671
 72
     1
 10
-2377.531792660136
 20
-1007.994191428671
 11
-2389.447322841297
 21
-953.7123317144926
 72
     1
 10
-2389.447322841297
 20
-953.7123317144927
 11
-2368.264158074789
 21
-917.9657411710094
 72
     1
 10
-2368.264158074788
 20
-917.9657411710094
 11
-2319.278089552236
 21
-892.8107330107799
 72
     1
 10
-2319.278089552237
 20
-892.8107330107799
 11
-2357.672575691534
 21
-743.2046318473122
 72
     1
 10
-2357.672575691534
 20
-743.2046318473122
 11
-2339.137306520839
 21
-733.9369972619647
 72
     1
 10
-2339.137306520839
 20
-733.9369972619647
 11
-2585.391596931503
 21
-152.7239139808826
 72
     1
 10
-2585.391596931503
 20
-152.7239139808825
 11
-2537.729476206859
 21
78.96695065280639
 72
     1
 10
-2537.729476206858
 20
78.96695065280636
 11
-2516.546311440349
 21
153.1080273355871
 72
     1
 10
-2516.546311440349
 20
153.1080273355871
 11
-2117.237933346506
 21
1163.550848035856
 97
        0
 75
     0
 76
     1
 98
        0
  0
POLYLINE
  5
82
330
1F
100
AcDbEntity
  8
Layer 3
370
     0
100
AcDb2dPolyline
 66
     1
 10
0.0
 20
0.0
 30
0.0
  0
VERTEX
  5
83
330
82
100
AcDbEntity
  8
Layer 3
370
     0
100
AcDbVertex
100
AcDb2dVertex
 10
-2575.866371921768
 20
-106.4207368502249
 30
0.0
  0
VERTEX
  5
84
330
82
100
AcDbEntity
  8
Layer 3
370
     0
100
AcDbVertex
100
AcDb2dVertex
 10
-2699.430576085698
 20
-154.2384280791184
 30
0.0
  0
VERTEX
  5
85
330
82
100
AcDbEntity
  8
Layer 3
370
     0
100
AcDbVertex
100
AcDb2dVertex
 10
-2605.489689729497
 20
-450.4131670076973
 30
0.0
  0
VERTEX
  5
86
330
82
100
AcDbEntity
  8
Layer 3
370
     0
100
AcDbVertex
100
AcDb2dVertex
 10
-2551.995573887772
 20
-550.8777260275233
 30
0.0
  0
VERTEX
  5
87
330
82
100
AcDbEntity
  8
Layer 3
370
     0
100
AcDbVertex
100
AcDb2dVertex
 10
-2520.681945102371
 20
-627.8570634582995
 30
0.0
  0
VERTEX
  5
88
330
82
100
AcDbEntity
  8
Layer 3
370
     0
100
AcDbVertex
100
AcDb2dVertex
 10
-2512.853537906021
 20
-691.7890555618247
 30
0.0
  0
VERTEX
  5
89
330
82
100
AcDbEntity
  8
Layer 3
370
     0
100
AcDbVertex
100
AcDb2dVertex
 10
-2469.797298326096
 20
-764.8541893944258
 30
0.0
  0
VERTEX
  5
8A
330
82
100
AcDbEntity
  8
Layer 3
370
     0
100
AcDbVertex
100
AcDb2dVertex
 10
-2368.264158074788
 20
-917.9657411710094
 30
0.0
  0
VERTEX
  5
8B
330
82
100
AcDbEntity
  8
Layer 3
370
     0
100
AcDbVertex
100
AcDb2dVertex
 10
-2319.278089552237
 20
-892.8107330107799
 30
0.0
  0
VERTEX
  5
8C
330
82
100
AcDbEntity
  8
Layer 3
370
     0
100
AcDbVertex
100
AcDb2dVertex
 10
-2357.672575691534
 20
-743.2046318473122
 30
0.0
  0
VERTEX
  5
8D
330
82
100
AcDbEntity
  8
Layer 3
370
     0
100
AcDbVertex
100
AcDb2dVertex
 10
-2339.137306520839
 20
-733.9369972619647
 30
0.0
  0
VERTEX
  5
8E
330
82
100
AcDbEntity
  8
Layer 3
370
     0
100
AcDbVertex
100
AcDb2dVertex
 10
-2585.391596931503
 20
-152.7239139808825
 30
0.0
  0
VERTEX
  5
8F
330
82
100
AcDbEntity
  8
Layer 3
370
     0
100
AcDbVertex
100
AcDb2dVertex
 10
-2575.866371921768
 20
-106.4207368502249
 30
0.0
  0
SEQEND
  5
91
330
82
100
AcDbEntity
  8
Layer 3
370
     0
  0
HATCH
  5
90
330
1F
100
AcDbEntity
  8
Layer 3
 62
     7
420
 16777215
100
AcDbHatch
 10
0.0
 20
0.0
 30
0.0
210
0.0
220
0.0
230
1.0
  2
SOLID
 70
     1
 71
     0
 91
        1
 92
        1
 93
       12
 72
     1
 10
-2575.866371921768
 20
-106.4207368502249
 11
-2699.430576085698
 21
-154.2384280791184
 72
     1
 10
-2699.430576085698
 20
-154.2384280791184
 11
-2605.489689729497
 21
-450.4131670076972
 72
     1
 10
-2605.489689729497
 20
-450.4131670076973
 11
-2551.995573887772
 21
-550.8777260275233
 72
     1
 10
-2551.995573887772
 20
-550.8777260275233
 11
-2520.681945102371
 21
-627.8570634582995
 72
     1
 10
-2520.681945102371
 20
-627.8570634582995
 11
-2512.853537906021
 21
-691.7890555618247
 72
     1
 10
-2512.853537906021
 20
-691.7890555618247
 11
-2469.797298326096
 21
-764.8541893944258
 72
     1
 10
-2469.797298326096
 20
-764.8541893944258
 11
-2368.264158074788
 21
-917.9657411710094
 72
     1
 10
-2368.264158074788
 20
-917.9657411710094
 11
-2319.278089552237
 21
-892.8107330107799
 72
     1
 10
-2319.278089552237
 20
-892.8107330107799
 11
-2357.672575691534
 21
-743.2046318473122
 72
     1
 10
-2357.672575691534
 20
-743.2046318473122
 11
-2339.137306520839
 21
-733.9369972619647
 72
     1
 10
-2339.137306520839
 20
-733.9369972619647
 11
-2585.391596931503
 21
-152.7239139808826
 72
     1
 10
-2585.391596931503
 20
-152.7239139808825
 11
-2575.866371921768
 21
-106.4207368502249
 97
        0
 75
     0
 76
     1
 98
        0
  0
POLYLINE
  5
92
330
1F
100
AcDbEntity
  8
Layer 3
370
     0
100
AcDb2dPolyline
 66
     1
 10
0.0
 20
0.0
 30
0.0
  0
VERTEX
  5
93
330
92
100
AcDbEntity
  8
Layer 3
370
     0
100
AcDbVertex
100
AcDb2dVertex
 10
-1759.248171037662
 20
-724.6693626766179
 30
0.0
  0
VERTEX
  5
94
330
92
100
AcDbEntity
  8
Layer 3
370
     0
100
AcDbVertex
100
AcDb2dVertex
 10
-1609.642069874194
 20
-875.5994116379927
 30
0.0
  0
VERTEX
  5
95
330
92
100
AcDbEntity
  8
Layer 3
370
     0
100
AcDbVertex
100
AcDb2dVertex
 10
-1242.908529854011
 20
-956.3602273103081
 30
0.0
  0
VERTEX
  5
96
330
92
100
AcDbEntity
  8
Layer 3
370
     0
100
AcDbVertex
100
AcDb2dVertex
 10
-1234.96484306657
 20
-1311.178237149329
 30
0.0
  0
VERTEX
  5
97
330
92
100
AcDbEntity
  8
Layer 3
370
     0
100
AcDbVertex
100
AcDb2dVertex
 10
-1791.921851580749
 20
-1181.924588121959
 30
0.0
  0
VERTEX
  5
98
330
92
100
AcDbEntity
  8
Layer 3
370
     0
100
AcDbVertex
100
AcDb2dVertex
 10
-2030.540649224406
 20
-917.9657411710094
 30
0.0
  0
VERTEX
  5
99
330
92
100
AcDbEntity
  8
Layer 3
370
     0
100
AcDbVertex
100
AcDb2dVertex
 10
-1759.248171037662
 20
-724.6693626766179
 30
0.0
  0
SEQEND
  5
9B
330
92
100
AcDbEntity
  8
Layer 3
370
     0
  0
HATCH
  5
9A
330
1F
100
AcDbEntity
  8
Layer 3
 62
     7
420
 16777215
100
AcDbHatch
 10
0.0
 20
0.0
 30
0.0
210
0.0
220
0.0
230
1.0
  2
SOLID
 70
     1
 71
     0
 91
        1
 92
        1
 93
        6
 72
     1
 10
-1759.248171037662
 20
-724.6693626766179
 11
-1609.642069874194
 21
-875.5994116379927
 72
     1
 10
-1609.642069874194
 20
-875.5994116379927
 11
-1242.908529854011
 21
-956.3602273103081
 72
     1
 10
-1242.908529854011
 20
-956.3602273103081
 11
-1234.96484306657
 21
-1311.178237149329
 72
     1
 10
-1234.96484306657
 20
-1311.178237149329
 11
-1791.921851580749
 21
-1181.924588121959
 72
     1
 10
-1791.921851580749
 20
-1181.924588121959
 11
-2030.540649224406
 21
-917.9657411710094
 72
     1
 10
-2030.540649224406
 20
-917.9657411710094
 11
-1759.248171037662
 21
-724.6693626766179
 97
        0
 75
     0
 76
     1
 98
        0
  0
POLYLINE
  5
9C
330
1F
100
AcDbEntity
  8
Layer 3
370
     0
100
AcDb2dPolyline
 66
     1
 10
0.0
 20
0.0
 30
0.0
  0
VERTEX
  5
9D
330
9C
100
AcDbEntity
  8
Layer 3
370
     0
100
AcDbVertex
100
AcDb2dVertex
 10
-1671.867616375813
 20
-671.7114507603461
 30
0.0
  0
VERTEX
  5
9E
330
9C
100
AcDbEntity
  8
Layer 3
370
     0
100
AcDbVertex
100
AcDb2dVertex
 10
-1759.248171037662
 20
-724.6693626766179
 30
0.0
  0
VERTEX
  5
9F
330
9C
100
AcDbEntity
  8
Layer 3
370
     0
100
AcDbVertex
100
AcDb2dVertex
 10
-2030.540649224406
 20
-917.9657411710094
 30
0.0
  0
VERTEX
  5
A0
330
9C
100
AcDbEntity
  8
Layer 3
370
     0
100
AcDbVertex
100
AcDb2dVertex
 10
-2138.546840939351
 20
-798.4898653801419
 30
0.0
  0
VERTEX
  5
A1
330
9C
100
AcDbEntity
  8
Layer 3
370
     0
100
AcDbVertex
100
AcDb2dVertex
 10
-2163.086663194827
 20
-727.9378763956478
 30
0.0
  0
VERTEX
  5
A2
330
9C
100
AcDbEntity
  8
Layer 3
370
     0
100
AcDbVertex
100
AcDb2dVertex
 10
-2115.835013420611
 20
78.11967857627958
 30
0.0
  0
VERTEX
  5
A3
330
9C
100
AcDbEntity
  8
Layer 3
370
     0
100
AcDbVertex
100
AcDb2dVertex
 10
-1973.721832663897
 20
78.11967857627958
 30
0.0
  0
VERTEX
  5
A4
330
9C
100
AcDbEntity
  8
Layer 3
370
     0
100
AcDbVertex
100
AcDb2dVertex
 10
-1836.75874065364
 20
10.93300906544344
 30
0.0
  0
VERTEX
  5
A5
330
9C
100
AcDbEntity
  8
Layer 3
370
     0
100
AcDbVertex
100
AcDb2dVertex
 10
-1723.70983931184
 20
1.14066943759039
 30
0.0
  0
VERTEX
  5
A6
330
9C
100
AcDbEntity
  8
Layer 3
370
     0
100
AcDbVertex
100
AcDb2dVertex
 10
-1795.452411317213
 20
-512.1932390106168
 30
0.0
  0
VERTEX
  5
A7
330
9C
100
AcDbEntity
  8
Layer 3
370
     0
100
AcDbVertex
100
AcDb2dVertex
 10
-1671.867616375813
 20
-671.7114507603461
 30
0.0
  0
SEQEND
  5
A9
330
9C
100
AcDbEntity
  8
Layer 3
370
     0
  0
HATCH
  5
A8
330
1F
100
AcDbEntity
  8
Layer 3
 62
     7
420
 16777215
100
AcDbHatch
 10
0.0
 20
0.0
 30
0.0
210
0.0
220
0.0
230
1.0
  2
SOLID
 70
     1
 71
     0
 91
        1
 92
        1
 93
       10
 72
     1
 10
-1671.867616375813
 20
-671.7114507603461
 11
-1759.248171037662
 21
-724.6693626766179
 72
     1
 10
-1759.248171037662
 20
-724.6693626766179
 11
-2030.540649224406
 21
-917.9657411710094
 72
     1
 10
-2030.540649224406
 20
-917.9657411710094
 11
-2138.546840939351
 21
-798.4898653801419
 72
     1
 10
-2138.546840939351
 20
-798.4898653801419
 11
-2163.086663194827
 21
-727.9378763956478
 72
     1
 10
-2163.086663194827
 20
-727.9378763956478
 11
-2115.835013420611
 21
78.11967857627963
 72
     1
 10
-2115.835013420611
 20
78.11967857627958
 11
-1973.721832663897
 21
78.11967857627958
 72
     1
 10
-1973.721832663897
 20
78.11967857627958
 11
-1836.75874065364
 21
10.93300906544344
 72
     1
 10
-1836.75874065364
 20
10.93300906544344
 11
-1723.70983931184
 21
1.14066943759039
 72
     1
 10
-1723.70983931184
 20
1.14066943759039
 11
-1795.452411317213
 21
-512.1932390106168
 72
     1
 10
-1795.452411317213
 20
-512.1932390106168
 11
-1671.867616375813
 21
-671.7114507603461
 97
        0
 75
     0
 76
     1
 98
        0
  0
POLYLINE
  5
AA
330
1F
100
AcDbEntity
  8
Layer 3
370
     0
100
AcDb2dPolyline
 66
     1
 10
0.0
 20
0.0
 30
0.0
  0
VERTEX
  5
AB
330
AA
100
AcDbEntity
  8
Layer 3
370
     0
100
AcDbVertex
100
AcDb2dVertex
 10
-1742.79616321216
 20
806.444367536914
 30
0.0
  0
VERTEX
  5
AC
330
AA
100
AcDbEntity
  8
Layer 3
370
     0
100
AcDbVertex
100
AcDb2dVertex
 10
-1623.823721160112
 20
707.9102706744163
 30
0.0
  0
VERTEX
  5
AD
330
AA
100
AcDbEntity
  8
Layer 3
370
     0
100
AcDbVertex
100
AcDb2dVertex
 10
-1353.387262189999
 20
625.3201702038733
 30
0.0
  0
VERTEX
  5
AE
330
AA
100
AcDbEntity
  8
Layer 3
370
     0
100
AcDbVertex
100
AcDb2dVertex
 10
-1336.734753949527
 20
604.4397411098905
 30
0.0
  0
VERTEX
  5
AF
330
AA
100
AcDbEntity
  8
Layer 3
370
     0
100
AcDbVertex
100
AcDb2dVertex
 10
-1336.734753949527
 20
495.7388744350832
 30
0.0
  0
VERTEX
  5
B0
330
AA
100
AcDbEntity
  8
Layer 3
370
     0
100
AcDbVertex
100
AcDb2dVertex
 10
-1328.038684615542
 20
463.1286144326411
 30
0.0
  0
VERTEX
  5
B1
330
AA
100
AcDbEntity
  8
Layer 3
370
     0
100
AcDbVertex
100
AcDb2dVertex
 10
-1234.96484306657
 20
504.4349437690678
 30
0.0
  0
VERTEX
  5
B2
330
AA
100
AcDbEntity
  8
Layer 3
370
     0
100
AcDbVertex
100
AcDb2dVertex
 10
-1280.210303278627
 20
408.7781810952375
 30
0.0
  0
VERTEX
  5
B3
330
AA
100
AcDbEntity
  8
Layer 3
370
     0
100
AcDbVertex
100
AcDb2dVertex
 10
-1328.038684615542
 20
367.4718517588107
 30
0.0
  0
VERTEX
  5
B4
330
AA
100
AcDbEntity
  8
Layer 3
370
     0
100
AcDbVertex
100
AcDb2dVertex
 10
-1571.52862596711
 20
78.11967857627958
 30
0.0
  0
VERTEX
  5
B5
330
AA
100
AcDbEntity
  8
Layer 3
370
     0
100
AcDbVertex
100
AcDb2dVertex
 10
-1575.876660634103
 20
-291.2554002905205
 30
0.0
  0
VERTEX
  5
B6
330
AA
100
AcDbEntity
  8
Layer 3
370
     0
100
AcDbVertex
100
AcDb2dVertex
 10
-1632.752746145488
 20
-312.9955736254821
 30
0.0
  0
VERTEX
  5
B7
330
AA
100
AcDbEntity
  8
Layer 3
370
     0
100
AcDbVertex
100
AcDb2dVertex
 10
-1684.57752730891
 20
-419.9230312973649
 30
0.0
  0
VERTEX
  5
B8
330
AA
100
AcDbEntity
  8
Layer 3
370
     0
100
AcDbVertex
100
AcDb2dVertex
 10
-1684.57752730891
 20
-512.1932390106168
 30
0.0
  0
VERTEX
  5
B9
330
AA
100
AcDbEntity
  8
Layer 3
370
     0
100
AcDbVertex
100
AcDb2dVertex
 10
-1753.015331571966
 20
-566.9692903529548
 30
0.0
  0
VERTEX
  5
BA
330
AA
100
AcDbEntity
  8
Layer 3
370
     0
100
AcDbVertex
100
AcDb2dVertex
 10
-1795.452411317213
 20
-512.1932390106168
 30
0.0
  0
VERTEX
  5
BB
330
AA
100
AcDbEntity
  8
Layer 3
370
     0
100
AcDbVertex
100
AcDb2dVertex
 10
-1723.70983931184
 20
1.14066943759039
 30
0.0
  0
VERTEX
  5
BC
330
AA
100
AcDbEntity
  8
Layer 3
370
     0
100
AcDbVertex
100
AcDb2dVertex
 10
-1836.75874065364
 20
10.93300906544344
 30
0.0
  0
VERTEX
  5
BD
330
AA
100
AcDbEntity
  8
Layer 3
370
     0
100
AcDbVertex
100
AcDb2dVertex
 10
-1973.721832663896
 20
78.11967857627958
 30
0.0
  0
VERTEX
  5
BE
330
AA
100
AcDbEntity
  8
Layer 3
370
     0
100
AcDbVertex
100
AcDb2dVertex
 10
-2115.835013420611
 20
78.11967857627958
 30
0.0
  0
VERTEX
  5
BF
330
AA
100
AcDbEntity
  8
Layer 3
370
     0
100
AcDbVertex
100
AcDb2dVertex
 10
-2110.93954090194
 20
161.6306803653678
 30
0.0
  0
VERTEX
  5
C0
330
AA
100
AcDbEntity
  8
Layer 3
370
     0
100
AcDbVertex
100
AcDb2dVertex
 10
-1742.79616321216
 20
806.444367536914
 30
0.0
  0
SEQEND
  5
C2
330
AA
100
AcDbEntity
  8
Layer 3
370
     0
  0
HATCH
  5
C1
330
1F
100
AcDbEntity
  8
Layer 3
 62
     7
420
 16777215
100
AcDbHatch
 10
0.0
 20
0.0
 30
0.0
210
0.0
220
0.0
230
1.0
  2
SOLID
 70
     1
 71
     0
 91
        1
 92
        1
 93
       21
 72
     1
 10
-1742.79616321216
 20
806.444367536914
 11
-1623.823721160112
 21
707.9102706744163
 72
     1
 10
-1623.823721160112
 20
707.9102706744163
 11
-1353.387262189999
 21
625.3201702038733
 72
     1
 10
-1353.387262189999
 20
625.3201702038733
 11
-1336.734753949527
 21
604.4397411098905
 72
     1
 10
-1336.734753949527
 20
604.4397411098905
 11
-1336.734753949527
 21
495.7388744350832
 72
     1
 10
-1336.734753949527
 20
495.7388744350832
 11
-1328.038684615542
 21
463.1286144326411
 72
     1
 10
-1328.038684615542
 20
463.1286144326411
 11
-1234.96484306657
 21
504.4349437690678
 72
     1
 10
-1234.96484306657
 20
504.4349437690678
 11
-1280.210303278627
 21
408.7781810952375
 72
     1
 10
-1280.210303278627
 20
408.7781810952375
 11
-1328.038684615542
 21
367.4718517588107
 72
     1
 10
-1328.038684615542
 20
367.4718517588107
 11
-1571.52862596711
 21
78.11967857627957
 72
     1
 10
-1571.52862596711
 20
78.11967857627958
 11
-1575.876660634103
 21
-291.2554002905205
 72
     1
 10
-1575.876660634103
 20
-291.2554002905205
 11
-1632.752746145488
 21
-312.9955736254821
 72
     1
 10
-1632.752746145488
 20
-312.9955736254821
 11
-1684.57752730891
 21
-419.9230312973649
 72
     1
 10
-1684.57752730891
 20
-419.9230312973649
 11
-1684.57752730891
 21
-512.1932390106168
 72
     1
 10
-1684.57752730891
 20
-512.1932390106168
 11
-1753.015331571966
 21
-566.9692903529548
 72
     1
 10
-1753.015331571966
 20
-566.9692903529548
 11
-1795.452411317213
 21
-512.1932390106168
 72
     1
 10
-1795.452411317213
 20
-512.1932390106168
 11
-1723.70983931184
 21
1.140669437590418
 72
     1
 10
-1723.70983931184
 20
1.14066943759039
 11
-1836.75874065364
 21
10.93300906544344
 72
     1
 10
-1836.75874065364
 20
10.93300906544344
 11
-1973.721832663896
 21
78.11967857627958
 72
     1
 10
-1973.721832663896
 20
78.11967857627958
 11
-2115.835013420611
 21
78.11967857627958
 72
     1
 10
-2115.835013420611
 20
78.11967857627958
 11
-2110.93954090194
 21
161.6306803653678
 72
     1
 10
-2110.93954090194
 20
161.6306803653678
 11
-1742.79616321216
 21
806.444367536914
 97
        0
 75
     0
 76
     1
 98
        0
  0
POLYLINE
  5
C3
330
1F
100
AcDbEntity
  8
Layer 3
370
     0
100
AcDb2dPolyline
 66
     1
 10
0.0
 20
0.0
 30
0.0
  0
VERTEX
  5
C4
330
C3
100
AcDbEntity
  8
Layer 3
370
     0
100
AcDbVertex
100
AcDb2dVertex
 10
-1336.734753949527
 20
604.4397411098905
 30
0.0
  0
VERTEX
  5
C5
330
C3
100
AcDbEntity
  8
Layer 3
370
     0
100
AcDbVertex
100
AcDb2dVertex
 10
-1314.994580614565
 20
625.3201702038733
 30
0.0
  0
VERTEX
  5
C6
330
C3
100
AcDbEntity
  8
Layer 3
370
     0
100
AcDbVertex
100
AcDb2dVertex
 10
-1173.683453937316
 20
421.8222850962131
 30
0.0
  0
VERTEX
  5
C7
330
C3
100
AcDbEntity
  8
Layer 3
370
     0
100
AcDbVertex
100
AcDb2dVertex
 10
-1117.159003266417
 20
465.3026317661359
 30
0.0
  0
VERTEX
  5
C8
330
C3
100
AcDbEntity
  8
Layer 3
370
     0
100
AcDbVertex
100
AcDb2dVertex
 10
-1038.894379260555
 20
384.8639904267788
 30
0.0
  0
VERTEX
  5
C9
330
C3
100
AcDbEntity
  8
Layer 3
370
     0
100
AcDbVertex
100
AcDb2dVertex
 10
-1143.24721126837
 20
247.900898416522
 30
0.0
  0
VERTEX
  5
CA
330
C3
100
AcDbEntity
  8
Layer 3
370
     0
100
AcDbVertex
100
AcDb2dVertex
 10
-1187.814566605041
 20
269.6410717514832
 30
0.0
  0
VERTEX
  5
CB
330
C3
100
AcDbEntity
  8
Layer 3
370
     0
100
AcDbVertex
100
AcDb2dVertex
 10
-1404.129291287907
 20
1.14066943759039
 30
0.0
  0
VERTEX
  5
CC
330
C3
100
AcDbEntity
  8
Layer 3
370
     0
100
AcDbVertex
100
AcDb2dVertex
 10
-1447.60963795783
 20
-110.8119616103417
 30
0.0
  0
VERTEX
  5
CD
330
C3
100
AcDbEntity
  8
Layer 3
370
     0
100
AcDbVertex
100
AcDb2dVertex
 10
-1480.219897960272
 20
-478.2208909711898
 30
0.0
  0
VERTEX
  5
CE
330
C3
100
AcDbEntity
  8
Layer 3
370
     0
100
AcDbVertex
100
AcDb2dVertex
 10
-1460.653741958807
 20
-545.6154283095697
 30
0.0
  0
VERTEX
  5
CF
330
C3
100
AcDbEntity
  8
Layer 3
370
     0
100
AcDbVertex
100
AcDb2dVertex
 10
-1375.303309644691
 20
-665.0917117708121
 30
0.0
  0
VERTEX
  5
D0
330
C3
100
AcDbEntity
  8
Layer 3
370
     0
100
AcDbVertex
100
AcDb2dVertex
 10
-1421.641482571429
 20
-714.0777802933634
 30
0.0
  0
VERTEX
  5
D1
330
C3
100
AcDbEntity
  8
Layer 3
370
     0
100
AcDbVertex
100
AcDb2dVertex
 10
-1532.8530975956
 20
-714.0777802933634
 30
0.0
  0
VERTEX
  5
D2
330
C3
100
AcDbEntity
  8
Layer 3
370
     0
100
AcDbVertex
100
AcDb2dVertex
 10
-1640.09286922605
 20
-690.2467199310411
 30
0.0
  0
VERTEX
  5
D3
330
C3
100
AcDbEntity
  8
Layer 3
370
     0
100
AcDbVertex
100
AcDb2dVertex
 10
-1671.867616375813
 20
-671.7114507603461
 30
0.0
  0
VERTEX
  5
D4
330
C3
100
AcDbEntity
  8
Layer 3
370
     0
100
AcDbVertex
100
AcDb2dVertex
 10
-1753.015331571966
 20
-566.9692903529548
 30
0.0
  0
VERTEX
  5
D5
330
C3
100
AcDbEntity
  8
Layer 3
370
     0
100
AcDbVertex
100
AcDb2dVertex
 10
-1684.57752730891
 20
-512.1932390106168
 30
0.0
  0
VERTEX
  5
D6
330
C3
100
AcDbEntity
  8
Layer 3
370
     0
100
AcDbVertex
100
AcDb2dVertex
 10
-1684.57752730891
 20
-419.9230312973649
 30
0.0
  0
VERTEX
  5
D7
330
C3
100
AcDbEntity
  8
Layer 3
370
     0
100
AcDbVertex
100
AcDb2dVertex
 10
-1632.752746145488
 20
-312.9955736254821
 30
0.0
  0
VERTEX
  5
D8
330
C3
100
AcDbEntity
  8
Layer 3
370
     0
100
AcDbVertex
100
AcDb2dVertex
 10
-1575.876660634103
 20
-291.2554002905205
 30
0.0
  0
VERTEX
  5
D9
330
C3
100
AcDbEntity
  8
Layer 3
370
     0
100
AcDbVertex
100
AcDb2dVertex
 10
-1571.52862596711
 20
78.11967857627958
 30
0.0
  0
VERTEX
  5
DA
330
C3
100
AcDbEntity
  8
Layer 3
370
     0
100
AcDbVertex
100
AcDb2dVertex
 10
-1328.038684615542
 20
367.4718517588107
 30
0.0
  0
VERTEX
  5
DB
330
C3
100
AcDbEntity
  8
Layer 3
370
     0
100
AcDbVertex
100
AcDb2dVertex
 10
-1280.210303278627
 20
408.7781810952375
 30
0.0
  0
VERTEX
  5
DC
330
C3
100
AcDbEntity
  8
Layer 3
370
     0
100
AcDbVertex
100
AcDb2dVertex
 10
-1234.96484306657
 20
504.4349437690678
 30
0.0
  0
VERTEX
  5
DD
330
C3
100
AcDbEntity
  8
Layer 3
370
     0
100
AcDbVertex
100
AcDb2dVertex
 10
-1328.038684615542
 20
463.1286144326411
 30
0.0
  0
VERTEX
  5
DE
330
C3
100
AcDbEntity
  8
Layer 3
370
     0
100
AcDbVertex
100
AcDb2dVertex
 10
-1336.734753949527
 20
495.7388744350832
 30
0.0
  0
VERTEX
  5
DF
330
C3
100
AcDbEntity
  8
Layer 3
370
     0
100
AcDbVertex
100
AcDb2dVertex
 10
-1336.734753949527
 20
604.4397411098905
 30
0.0
  0
SEQEND
  5
E1
330
C3
100
AcDbEntity
  8
Layer 3
370
     0
  0
HATCH
  5
E0
330
1F
100
AcDbEntity
  8
Layer 3
 62
     7
420
 16777215
100
AcDbHatch
 10
0.0
 20
0.0
 30
0.0
210
0.0
220
0.0
230
1.0
  2
SOLID
 70
     1
 71
     0
 91
        1
 92
        1
 93
       27
 72
     1
 10
-1336.734753949527
 20
604.4397411098905
 11
-1314.994580614565
 21
625.3201702038733
 72
     1
 10
-1314.994580614565
 20
625.3201702038733
 11
-1173.683453937316
 21
421.8222850962131
 72
     1
 10
-1173.683453937316
 20
421.8222850962131
 11
-1117.159003266417
 21
465.3026317661359
 72
     1
 10
-1117.159003266417
 20
465.3026317661359
 11
-1038.894379260555
 21
384.8639904267788
 72
     1
 10
-1038.894379260555
 20
384.8639904267788
 11
-1143.24721126837
 21
247.900898416522
 72
     1
 10
-1143.24721126837
 20
247.900898416522
 11
-1187.814566605041
 21
269.6410717514832
 72
     1
 10
-1187.814566605041
 20
269.6410717514832
 11
-1404.129291287907
 21
1.140669437590418
 72
     1
 10
-1404.129291287907
 20
1.14066943759039
 11
-1447.60963795783
 21
-110.8119616103417
 72
     1
 10
-1447.60963795783
 20
-110.8119616103417
 11
-1480.219897960272
 21
-478.2208909711898
 72
     1
 10
-1480.219897960272
 20
-478.2208909711898
 11
-1460.653741958807
 21
-545.6154283095697
 72
     1
 10
-1460.653741958807
 20
-545.6154283095697
 11
-1375.303309644691
 21
-665.0917117708121
 72
     1
 10
-1375.303309644691
 20
-665.0917117708121
 11
-1421.641482571429
 21
-714.0777802933634
 72
     1
 10
-1421.641482571429
 20
-714.0777802933634
 11
-1532.8530975956
 21
-714.0777802933634
 72
     1
 10
-1532.8530975956
 20
-714.0777802933634
 11
-1640.09286922605
 21
-690.2467199310411
 72
     1
 10
-1640.09286922605
 20
-690.2467199310411
 11
-1671.867616375813
 21
-671.7114507603461
 72
     1
 10
-1671.867616375813
 20
-671.7114507603461
 11
-1753.015331571966
 21
-566.9692903529548
 72
     1
 10
-1753.015331571966
 20
-566.9692903529548
 11
-1684.57752730891
 21
-512.1932390106168
 72
     1
 10
-1684.57752730891
 20
-512.1932390106168
 11
-1684.57752730891
 21
-419.9230312973649
 72
     1
 10
-1684.57752730891
 20
-419.9230312973649
 11
-1632.752746145488
 21
-312.9955736254821
 72
     1
 10
-1632.752746145488
 20
-312.9955736254821
 11
-1575.876660634103
 21
-291.2554002905205
 72
     1
 10
-1575.876660634103
 20
-291.2554002905205
 11
-1571.52862596711
 21
78.11967857627957
 72
     1
 10
-1571.52862596711
 20
78.11967857627958
 11
-1328.038684615542
 21
367.4718517588107
 72
     1
 10
-1328.038684615542
 20
367.4718517588107
 11
-1280.210303278627
 21
408.7781810952375
 72
     1
 10
-1280.210303278627
 20
408.7781810952375
 11
-1234.96484306657
 21
504.4349437690678
 72
     1
 10
-1234.96484306657
 20
504.4349437690678
 11
-1328.038684615542
 21
463.1286144326411
 72
     1
 10
-1328.038684615542
 20
463.1286144326411
 11
-1336.734753949527
 21
495.7388744350832
 72
     1
 10
-1336.734753949527
 20
495.7388744350832
 11
-1336.734753949527
 21
604.4397411098905
 97
        0
 75
     0
 76
     1
 98
        0
  0
POLYLINE
  5
E2
330
1F
100
AcDbEntity
  8
Layer 3
370
     0
100
AcDb2dPolyline
 66
     1
 10
0.0
 20
0.0
 30
0.0
  0
VERTEX
  5
E3
330
E2
100
AcDbEntity
  8
Layer 3
370
     0
100
AcDbVertex
100
AcDb2dVertex
 10
-1314.994580614565
 20
625.3201702038733
 30
0.0
  0
VERTEX
  5
E4
330
E2
100
AcDbEntity
  8
Layer 3
370
     0
100
AcDbVertex
100
AcDb2dVertex
 10
-1336.734753949527
 20
604.4397411098905
 30
0.0
  0
VERTEX
  5
E5
330
E2
100
AcDbEntity
  8
Layer 3
370
     0
100
AcDbVertex
100
AcDb2dVertex
 10
-1353.387262189999
 20
625.3201702038733
 30
0.0
  0
VERTEX
  5
E6
330
E2
100
AcDbEntity
  8
Layer 3
370
     0
100
AcDbVertex
100
AcDb2dVertex
 10
-1246.272544584649
 20
773.0646284695184
 30
0.0
  0
VERTEX
  5
E7
330
E2
100
AcDbEntity
  8
Layer 3
370
     0
100
AcDbVertex
100
AcDb2dVertex
 10
-1076.653556179796
 20
675.8623888370332
 30
0.0
  0
VERTEX
  5
E8
330
E2
100
AcDbEntity
  8
Layer 3
370
     0
100
AcDbVertex
100
AcDb2dVertex
 10
-1090.736185647653
 20
625.3201702038733
 30
0.0
  0
VERTEX
  5
E9
330
E2
100
AcDbEntity
  8
Layer 3
370
     0
100
AcDbVertex
100
AcDb2dVertex
 10
-699.2390864412457
 20
402.6593771606192
 30
0.0
  0
VERTEX
  5
EA
330
E2
100
AcDbEntity
  8
Layer 3
370
     0
100
AcDbVertex
100
AcDb2dVertex
 10
-611.9267837405357
 20
540.669145945612
 30
0.0
  0
VERTEX
  5
EB
330
E2
100
AcDbEntity
  8
Layer 3
370
     0
100
AcDbVertex
100
AcDb2dVertex
 10
-259.8610470441262
 20
461.8064209256161
 30
0.0
  0
VERTEX
  5
EC
330
E2
100
AcDbEntity
  8
Layer 3
370
     0
100
AcDbVertex
100
AcDb2dVertex
 10
-242.9618916826982
 20
261.8330824820552
 30
0.0
  0
VERTEX
  5
ED
330
E2
100
AcDbEntity
  8
Layer 3
370
     0
100
AcDbVertex
100
AcDb2dVertex
 10
-462.6509113812579
 20
-19.81950687507296
 30
0.0
  0
VERTEX
  5
EE
330
E2
100
AcDbEntity
  8
Layer 3
370
     0
100
AcDbVertex
100
AcDb2dVertex
 10
-403.503867616261
 20
-87.4161283207831
 30
0.0
  0
VERTEX
  5
EF
330
E2
100
AcDbEntity
  8
Layer 3
370
     0
100
AcDbVertex
100
AcDb2dVertex
 10
-93.68601932342041
 20
-259.2242078286316
 30
0.0
  0
VERTEX
  5
F0
330
E2
100
AcDbEntity
  8
Layer 3
370
     0
100
AcDbVertex
100
AcDb2dVertex
 10
-150.0165371948459
 20
-332.4538810614847
 30
0.0
  0
VERTEX
  5
F1
330
E2
100
AcDbEntity
  8
Layer 3
370
     0
100
AcDbVertex
100
AcDb2dVertex
 10
-521.7979551462546
 20
-724.6693626766179
 30
0.0
  0
VERTEX
  5
F2
330
E2
100
AcDbEntity
  8
Layer 3
370
     0
100
AcDbVertex
100
AcDb2dVertex
 10
-589.3945765919653
 20
-757.7492909907473
 30
0.0
  0
VERTEX
  5
F3
330
E2
100
AcDbEntity
  8
Layer 3
370
     0
100
AcDbVertex
100
AcDb2dVertex
 10
-892.7878605050653
 20
-853.260756418392
 30
0.0
  0
VERTEX
  5
F4
330
E2
100
AcDbEntity
  8
Layer 3
370
     0
100
AcDbVertex
100
AcDb2dVertex
 10
-923.8371105584733
 20
-755.1201620284743
 30
0.0
  0
VERTEX
  5
F5
330
E2
100
AcDbEntity
  8
Layer 3
370
     0
100
AcDbVertex
100
AcDb2dVertex
 10
-1032.400829986831
 20
-691.570667728948
 30
0.0
  0
VERTEX
  5
F6
330
E2
100
AcDbEntity
  8
Layer 3
370
     0
100
AcDbVertex
100
AcDb2dVertex
 10
-1164.79560977751
 20
-674.3593463561596
 30
0.0
  0
VERTEX
  5
F7
330
E2
100
AcDbEntity
  8
Layer 3
370
     0
100
AcDbVertex
100
AcDb2dVertex
 10
-1354.120144878182
 20
-675.6832941540661
 30
0.0
  0
VERTEX
  5
F8
330
E2
100
AcDbEntity
  8
Layer 3
370
     0
100
AcDbVertex
100
AcDb2dVertex
 10
-1375.303309644691
 20
-665.0917117708121
 30
0.0
  0
VERTEX
  5
F9
330
E2
100
AcDbEntity
  8
Layer 3
370
     0
100
AcDbVertex
100
AcDb2dVertex
 10
-1460.653741958807
 20
-545.6154283095697
 30
0.0
  0
VERTEX
  5
FA
330
E2
100
AcDbEntity
  8
Layer 3
370
     0
100
AcDbVertex
100
AcDb2dVertex
 10
-1480.219897960272
 20
-478.2208909711898
 30
0.0
  0
VERTEX
  5
FB
330
E2
100
AcDbEntity
  8
Layer 3
370
     0
100
AcDbVertex
100
AcDb2dVertex
 10
-1447.60963795783
 20
-110.8119616103417
 30
0.0
  0
VERTEX
  5
FC
330
E2
100
AcDbEntity
  8
Layer 3
370
     0
100
AcDbVertex
100
AcDb2dVertex
 10
-1404.129291287907
 20
1.14066943759039
 30
0.0
  0
VERTEX
  5
FD
330
E2
100
AcDbEntity
  8
Layer 3
370
     0
100
AcDbVertex
100
AcDb2dVertex
 10
-1187.814566605041
 20
269.6410717514832
 30
0.0
  0
VERTEX
  5
FE
330
E2
100
AcDbEntity
  8
Layer 3
370
     0
100
AcDbVertex
100
AcDb2dVertex
 10
-1143.24721126837
 20
247.900898416522
 30
0.0
  0
VERTEX
  5
FF
330
E2
100
AcDbEntity
  8
Layer 3
370
     0
100
AcDbVertex
100
AcDb2dVertex
 10
-1038.894379260555
 20
384.8639904267788
 30
0.0
  0
VERTEX
  5
100
330
E2
100
AcDbEntity
  8
Layer 3
370
     0
100
AcDbVertex
100
AcDb2dVertex
 10
-1117.159003266417
 20
465.3026317661359
 30
0.0
  0
VERTEX
  5
101
330
E2
100
AcDbEntity
  8
Layer 3
370
     0
100
AcDbVertex
100
AcDb2dVertex
 10
-1173.683453937316
 20
421.8222850962131
 30
0.0
  0
VERTEX
  5
102
330
E2
100
AcDbEntity
  8
Layer 3
370
     0
100
AcDbVertex
100
AcDb2dVertex
 10
-1314.994580614565
 20
625.3201702038733
 30
0.0
  0
SEQEND
  5
104
330
E2
100
AcDbEntity
  8
Layer 3
370
     0
  0
HATCH
  5
103
330
1F
100
AcDbEntity
  8
Layer 3
 62
     7
420
 16777215
100
AcDbHatch
 10
0.0
 20
0.0
 30
0.0
210
0.0
220
0.0
230
1.0
  2
SOLID
 70
     1
 71
     0
 91
        1
 92
        1
 93
       31
 72
     1
 10
-1314.994580614565
 20
625.3201702038733
 11
-1336.734753949527
 21
604.4397411098905
 72
     1
 10
-1336.734753949527
 20
604.4397411098905
 11
-1353.387262189999
 21
625.3201702038733
 72
     1
 10
-1353.387262189999
 20
625.3201702038733
 11
-1246.272544584649
 21
773.0646284695184
 72
     1
 10
-1246.272544584649
 20
773.0646284695184
 11
-1076.653556179796
 21
675.8623888370332
 72
     1
 10
-1076.653556179796
 20
675.8623888370332
 11
-1090.736185647653
 21
625.3201702038733
 72
     1
 10
-1090.736185647653
 20
625.3201702038733
 11
-699.2390864412457
 21
402.6593771606192
 72
     1
 10
-699.2390864412457
 20
402.6593771606192
 11
-611.9267837405357
 21
540.669145945612
 72
     1
 10
-611.9267837405357
 20
540.669145945612
 11
-259.8610470441262
 21
461.8064209256161
 72
     1
 10
-259.8610470441262
 20
461.8064209256161
 11
-242.9618916826982
 21
261.8330824820552
 72
     1
 10
-242.9618916826982
 20
261.8330824820552
 11
-462.6509113812579
 21
-19.81950687507293
 72
     1
 10
-462.6509113812579
 20
-19.81950687507296
 11
-403.503867616261
 21
-87.4161283207831
 72
     1
 10
-403.503867616261
 20
-87.4161283207831
 11
-93.6860193234204
 21
-259.2242078286316
 72
     1
 10
-93.68601932342041
 20
-259.2242078286316
 11
-150.0165371948459
 21
-332.4538810614847
 72
     1
 10
-150.0165371948459
 20
-332.4538810614847
 11
-521.7979551462546
 21
-724.6693626766179
 72
     1
 10
-521.7979551462546
 20
-724.6693626766179
 11
-589.3945765919653
 21
-757.7492909907473
 72
     1
 10
-589.3945765919653
 20
-757.7492909907473
 11
-892.7878605050653
 21
-853.260756418392
 72
     1
 10
-892.7878605050653
 20
-853.260756418392
 11
-923.8371105584733
 21
-755.1201620284743
 72
     1
 10
-923.8371105584733
 20
-755.1201620284743
 11
-1032.400829986831
 21
-691.570667728948
 72
     1
 10
-1032.400829986831
 20
-691.570667728948
 11
-1164.79560977751
 21
-674.3593463561596
 72
     1
 10
-1164.79560977751
 20
-674.3593463561596
 11
-1354.120144878182
 21
-675.6832941540661
 72
     1
 10
-1354.120144878182
 20
-675.6832941540661
 11
-1375.303309644691
 21
-665.0917117708121
 72
     1
 10
-1375.303309644691
 20
-665.0917117708121
 11
-1460.653741958807
 21
-545.6154283095697
 72
     1
 10
-1460.653741958807
 20
-545.6154283095697
 11
-1480.219897960272
 21
-478.2208909711898
 72
     1
 10
-1480.219897960272
 20
-478.2208909711898
 11
-1447.60963795783
 21
-110.8119616103417
 72
     1
 10
-1447.60963795783
 20
-110.8119616103417
 11
-1404.129291287907
 21
1.14066943759039
 72
     1
 10
-1404.129291287907
 20
1.14066943759039
 11
-1187.814566605041
 21
269.6410717514832
 72
     1
 10
-1187.814566605041
 20
269.6410717514832
 11
-1143.24721126837
 21
247.900898416522
 72
     1
 10
-1143.24721126837
 20
247.900898416522
 11
-1038.894379260555
 21
384.8639904267788
 72
     1
 10
-1038.894379260555
 20
384.8639904267788
 11
-1117.159003266417
 21
465.3026317661359
 72
     1
 10
-1117.159003266417
 20
465.3026317661359
 11
-1173.683453937316
 21
421.8222850962131
 72
     1
 10
-1173.683453937316
 20
421.8222850962131
 11
-1314.994580614565
 21
625.3201702038733
 97
        0
 75
     0
 76
     1
 98
        0
  0
POLYLINE
  5
105
330
1F
100
AcDbEntity
  8
Layer 3
370
     0
100
AcDb2dPolyline
 66
     1
 10
0.0
 20
0.0
 30
0.0
  0
VERTEX
  5
106
330
105
100
AcDbEntity
  8
Layer 3
370
     0
100
AcDbVertex
100
AcDb2dVertex
 10
-660.371498775021
 20
-1587.883326911848
 30
0.0
  0
VERTEX
  5
107
330
105
100
AcDbEntity
  8
Layer 3
370
     0
100
AcDbVertex
100
AcDb2dVertex
 10
-892.7878605050653
 20
-853.260756418392
 30
0.0
  0
VERTEX
  5
108
330
105
100
AcDbEntity
  8
Layer 3
370
     0
100
AcDbVertex
100
AcDb2dVertex
 10
-589.3945765919653
 20
-757.7492909907473
 30
0.0
  0
VERTEX
  5
109
330
105
100
AcDbEntity
  8
Layer 3
370
     0
100
AcDbVertex
100
AcDb2dVertex
 10
-521.7979551462546
 20
-724.6693626766179
 30
0.0
  0
VERTEX
  5
10A
330
105
100
AcDbEntity
  8
Layer 3
370
     0
100
AcDbVertex
100
AcDb2dVertex
 10
-150.0165371948459
 20
-332.4538810614847
 30
0.0
  0
VERTEX
  5
10B
330
105
100
AcDbEntity
  8
Layer 3
370
     0
100
AcDbVertex
100
AcDb2dVertex
 10
-93.68601932342041
 20
-259.2242078286316
 30
0.0
  0
VERTEX
  5
10C
330
105
100
AcDbEntity
  8
Layer 3
370
     0
100
AcDbVertex
100
AcDb2dVertex
 10
-68.36089349809222
 20
-206.1106115641164
 30
0.0
  0
VERTEX
  5
10D
330
105
100
AcDbEntity
  8
Layer 3
370
     0
100
AcDbVertex
100
AcDb2dVertex
 10
-115.0677751347914
 20
-171.8588983638708
 30
0.0
  0
VERTEX
  5
10E
330
105
100
AcDbEntity
  8
Layer 3
370
     0
100
AcDbVertex
100
AcDb2dVertex
 10
-68.36089349809222
 20
167.5444415294761
 30
0.0
  0
VERTEX
  5
10F
330
105
100
AcDbEntity
  8
Layer 3
370
     0
100
AcDbVertex
100
AcDb2dVertex
 10
-118.1815672439047
 20
407.3064339311985
 30
0.0
  0
VERTEX
  5
110
330
105
100
AcDbEntity
  8
Layer 3
370
     0
100
AcDbVertex
100
AcDb2dVertex
 10
40.62183032087223
 20
407.3064339311985
 30
0.0
  0
VERTEX
  5
111
330
105
100
AcDbEntity
  8
Layer 3
370
     0
100
AcDbVertex
100
AcDb2dVertex
 10
523.2596072334293
 20
279.6409574575542
 30
0.0
  0
VERTEX
  5
112
330
105
100
AcDbEntity
  8
Layer 3
370
     0
100
AcDbVertex
100
AcDb2dVertex
 10
1005.897384145987
 20
78.11967857627958
 30
0.0
  0
VERTEX
  5
113
330
105
100
AcDbEntity
  8
Layer 3
370
     0
100
AcDbVertex
100
AcDb2dVertex
 10
1258.114544984162
 20
-131.3796009453979
 30
0.0
  0
VERTEX
  5
114
330
105
100
AcDbEntity
  8
Layer 3
370
     0
100
AcDbVertex
100
AcDb2dVertex
 10
1304.821426620861
 20
-240.3623247643627
 30
0.0
  0
VERTEX
  5
115
330
105
100
AcDbEntity
  8
Layer 3
370
     0
100
AcDbVertex
100
AcDb2dVertex
 10
1317.276595057314
 20
-324.4347117104211
 30
0.0
  0
VERTEX
  5
116
330
105
100
AcDbEntity
  8
Layer 3
370
     0
100
AcDbVertex
100
AcDb2dVertex
 10
1236.318000220369
 20
-336.8898801468743
 30
0.0
  0
VERTEX
  5
117
330
105
100
AcDbEntity
  8
Layer 3
370
     0
100
AcDbVertex
100
AcDb2dVertex
 10
862.6629471267762
 20
-714.0777802933634
 30
0.0
  0
VERTEX
  5
118
330
105
100
AcDbEntity
  8
Layer 3
370
     0
100
AcDbVertex
100
AcDb2dVertex
 10
915.5974129817022
 20
-757.2518148771657
 30
0.0
  0
VERTEX
  5
119
330
105
100
AcDbEntity
  8
Layer 3
370
     0
100
AcDbVertex
100
AcDb2dVertex
 10
856.4353629085496
 20
-797.7311122956386
 30
0.0
  0
VERTEX
  5
11A
330
105
100
AcDbEntity
  8
Layer 3
370
     0
100
AcDbVertex
100
AcDb2dVertex
 10
784.8181443989444
 20
-872.462122914357
 30
0.0
  0
VERTEX
  5
11B
330
105
100
AcDbEntity
  8
Layer 3
370
     0
100
AcDbVertex
100
AcDb2dVertex
 10
548.1699441063356
 20
-1099.768946879626
 30
0.0
  0
VERTEX
  5
11C
330
105
100
AcDbEntity
  8
Layer 3
370
     0
100
AcDbVertex
100
AcDb2dVertex
 10
392.480338650672
 20
-1143.362036407211
 30
0.0
  0
VERTEX
  5
11D
330
105
100
AcDbEntity
  8
Layer 3
370
     0
100
AcDbVertex
100
AcDb2dVertex
 10
323.9769122501801
 20
-1227.43442335327
 30
0.0
  0
VERTEX
  5
11E
330
105
100
AcDbEntity
  8
Layer 3
370
     0
100
AcDbVertex
100
AcDb2dVertex
 10
271.042446395254
 20
-1258.572344444403
 30
0.0
  0
VERTEX
  5
11F
330
105
100
AcDbEntity
  8
Layer 3
370
     0
100
AcDbVertex
100
AcDb2dVertex
 10
143.3769699216101
 20
-1267.913720771742
 30
0.0
  0
VERTEX
  5
120
330
105
100
AcDbEntity
  8
Layer 3
370
     0
100
AcDbVertex
100
AcDb2dVertex
 10
-9.19884342494021
 20
-1339.530939281348
 30
0.0
  0
VERTEX
  5
121
330
105
100
AcDbEntity
  8
Layer 3
370
     0
100
AcDbVertex
100
AcDb2dVertex
 10
-183.5712015352836
 20
-1367.555068263368
 30
0.0
  0
VERTEX
  5
122
330
105
100
AcDbEntity
  8
Layer 3
370
     0
100
AcDbVertex
100
AcDb2dVertex
 10
-258.3022121540021
 20
-1426.71711833652
 30
0.0
  0
VERTEX
  5
123
330
105
100
AcDbEntity
  8
Layer 3
370
     0
100
AcDbVertex
100
AcDb2dVertex
 10
-370.3987280820799
 20
-1420.489534118293
 30
0.0
  0
VERTEX
  5
124
330
105
100
AcDbEntity
  8
Layer 3
370
     0
100
AcDbVertex
100
AcDb2dVertex
 10
-438.9021544825718
 20
-1448.513663100312
 30
0.0
  0
VERTEX
  5
125
330
105
100
AcDbEntity
  8
Layer 3
370
     0
100
AcDbVertex
100
AcDb2dVertex
 10
-507.405580883064
 20
-1523.244673719031
 30
0.0
  0
VERTEX
  5
126
330
105
100
AcDbEntity
  8
Layer 3
370
     0
100
AcDbVertex
100
AcDb2dVertex
 10
-660.371498775021
 20
-1587.883326911848
 30
0.0
  0
SEQEND
  5
128
330
105
100
AcDbEntity
  8
Layer 3
370
     0
  0
HATCH
  5
127
330
1F
100
AcDbEntity
  8
Layer 3
 62
     7
420
 16777215
100
AcDbHatch
 10
0.0
 20
0.0
 30
0.0
210
0.0
220
0.0
230
1.0
  2
SOLID
 70
     1
 71
     0
 91
        1
 92
        1
 93
       32
 72
     1
 10
-660.371498775021
 20
-1587.883326911848
 11
-892.7878605050653
 21
-853.260756418392
 72
     1
 10
-892.7878605050653
 20
-853.260756418392
 11
-589.3945765919653
 21
-757.7492909907473
 72
     1
 10
-589.3945765919653
 20
-757.7492909907473
 11
-521.7979551462546
 21
-724.6693626766179
 72
     1
 10
-521.7979551462546
 20
-724.6693626766179
 11
-150.0165371948459
 21
-332.4538810614847
 72
     1
 10
-150.0165371948459
 20
-332.4538810614847
 11
-93.68601932342041
 21
-259.2242078286316
 72
     1
 10
-93.68601932342041
 20
-259.2242078286316
 11
-68.36089349809222
 21
-206.1106115641164
 72
     1
 10
-68.36089349809222
 20
-206.1106115641164
 11
-115.0677751347914
 21
-171.8588983638708
 72
     1
 10
-115.0677751347914
 20
-171.8588983638708
 11
-68.36089349809222
 21
167.5444415294761
 72
     1
 10
-68.36089349809222
 20
167.5444415294761
 11
-118.1815672439047
 21
407.3064339311985
 72
     1
 10
-118.1815672439047
 20
407.3064339311985
 11
40.62183032087223
 21
407.3064339311985
 72
     1
 10
40.62183032087223
 20
407.3064339311985
 11
523.2596072334293
 21
279.6409574575542
 72
     1
 10
523.2596072334293
 20
279.6409574575542
 11
1005.897384145987
 21
78.11967857627957
 72
     1
 10
1005.897384145987
 20
78.11967857627958
 11
1258.114544984162
 21
-131.379600945398
 72
     1
 10
1258.114544984162
 20
-131.3796009453979
 11
1304.821426620861
 21
-240.3623247643627
 72
     1
 10
1304.821426620861
 20
-240.3623247643627
 11
1317.276595057314
 21
-324.4347117104211
 72
     1
 10
1317.276595057314
 20
-324.4347117104211
 11
1236.318000220369
 21
-336.8898801468743
 72
     1
 10
1236.318000220369
 20
-336.8898801468743
 11
862.6629471267762
 21
-714.0777802933634
 72
     1
 10
862.6629471267762
 20
-714.0777802933634
 11
915.5974129817022
 21
-757.2518148771657
 72
     1
 10
915.5974129817022
 20
-757.2518148771657
 11
856.4353629085496
 21
-797.7311122956386
 72
     1
 10
856.4353629085496
 20
-797.7311122956386
 11
784.8181443989444
 21
-872.462122914357
 72
     1
 10
784.8181443989444
 20
-872.462122914357
 11
548.1699441063356
 21
-1099.768946879626
 72
     1
 10
548.1699441063356
 20
-1099.768946879626
 11
392.480338650672
 21
-1143.362036407211
 72
     1
 10
392.480338650672
 20
-1143.362036407211
 11
323.9769122501801
 21
-1227.43442335327
 72
     1
 10
323.9769122501801
 20
-1227.43442335327
 11
271.042446395254
 21
-1258.572344444403
 72
     1
 10
271.042446395254
 20
-1258.572344444403
 11
143.3769699216101
 21
-1267.913720771742
 72
     1
 10
143.3769699216101
 20
-1267.913720771742
 11
-9.198843424940208
 21
-1339.530939281348
 72
     1
 10
-9.19884342494021
 20
-1339.530939281348
 11
-183.5712015352836
 21
-1367.555068263368
 72
     1
 10
-183.5712015352836
 20
-1367.555068263368
 11
-258.3022121540021
 21
-1426.71711833652
 72
     1
 10
-258.3022121540021
 20
-1426.71711833652
 11
-370.3987280820799
 21
-1420.489534118293
 72
     1
 10
-370.3987280820799
 20
-1420.489534118293
 11
-438.9021544825718
 21
-1448.513663100312
 72
     1
 10
-438.9021544825718
 20
-1448.513663100312
 11
-507.405580883064
 21
-1523.244673719031
 72
     1
 10
-507.405580883064
 20
-1523.244673719031
 11
-660.371498775021
 21
-1587.883326911848
 97
        0
 75
     0
 76
     1
 98
        0
  0
ENDSEC
  0
SECTION
  2
OBJECTS
  0
DICTIONARY
  5
C
330
0
100
AcDbDictionary
281
     1
  3
ACAD_GROUP
350
D
  3
ACAD_LAYOUT
350
1A
  3
ACAD_MATERIAL
350
3B
  3
ACAD_MLEADERSTYLE
350
12A
  3
ACAD_MLINESTYLE
350
17
  3
ACAD_PLOTSETTINGS
350
19
  3
ACAD_PLOTSTYLENAME
350
E
  3
ACAD_TABLESTYLE
350
129
  3
ACAD_VISUALSTYLE
350
2A
  0
SUN
  5
3F
330
29
100
AcDbSun
 90
        1
290
     0
 63
     7
421
 16777215
 40
1.0
291
     1
 91
  2455826
 92
 54000000
292
     0
 70
     2
 71
   256
280
     1
  0
DICTIONARY
  5
D
102
{ACAD_REACTORS
330
C
102
}
330
C
100
AcDbDictionary
281
     1
  0
DICTIONARY
  5
1A
102
{ACAD_REACTORS
330
C
102
}
330
C
100
AcDbDictionary
281
     1
  3
Layout1
350
1E
  3
Layout2
350
26
  3
Model
350
22
  0
DICTIONARY
  5
3B
102
{ACAD_REACTORS
330
C
102
}
330
C
100
AcDbDictionary
281
     1
  3
ByBlock
350
3D
  3
ByLayer
350
3C
  3
Global
350
3E
  0
DICTIONARY
  5
12A
102
{ACAD_REACTORS
330
C
102
}
330
C
100
AcDbDictionary
281
     1
  0
DICTIONARY
  5
17
102
{ACAD_REACTORS
330
C
102
}
330
C
100
AcDbDictionary
281
     1
  3
Standard
350
18
  0
DICTIONARY
  5
19
102
{ACAD_REACTORS
330
C
102
}
330
C
100
AcDbDictionary
281
     1
  0
ACDBDICTIONARYWDFLT
  5
E
102
{ACAD_REACTORS
330
C
102
}
330
C
100
AcDbDictionary
281
     1
  3
Normal
350
F
100
AcDbDictionaryWithDefault
340
F
  0
DICTIONARY
  5
129
102
{ACAD_REACTORS
330
C
102
}
330
C
100
AcDbDictionary
281
     1
  0
DICTIONARY
  5
2A
102
{ACAD_REACTORS
330
C
102
}
330
C
100
AcDbDictionary
281
     1
  3
2dWireframe
350
2F
  3
3D Hidden
350
31
  3
3dWireframe
350
30
  3
Basic
350
32
  3
Brighten
350
36
  3
ColorChange
350
3A
  3
Conceptual
350
34
  3
Dim
350
35
  3
Facepattern
350
39
  3
Flat
350
2B
  3
FlatWithEdges
350
2C
  3
Gouraud
350
2D
  3
GouraudWithEdges
350
2E
  3
Linepattern
350
38
  3
Realistic
350
33
  3
Thicken
350
37
  0
LAYOUT
  5
1E
102
{ACAD_REACTORS
330
1A
102
}
330
1A
100
AcDbPlotSettings
  1

  2
none_device
  4

  6

 40
0.0
 41
0.0
 42
0.0
 43
0.0
 44
0.0
 45
0.0
 46
0.0
 47
0.0
 48
0.0
 49
0.0
140
0.0
141
0.0
142
1.0
143
1.0
 70
   688
 72
     0
 73
     0
 74
     5
  7

 75
    16
 76
     0
 77
     2
 78
   300
147
1.0
148
0.0
149
0.0
100
AcDbLayout
  1
Layout1
 70
     1
 71
     1
 10
0.0
 20
0.0
 11
12.0
 21
9.0
 12
0.0
 22
0.0
 32
0.0
 14
1.000000000000000E+20
 24
1.000000000000000E+20
 34
1.000000000000000E+20
 15
-1.000000000000000E+20
 25
-1.000000000000000E+20
 35
-1.000000000000000E+20
146
0.0
 13
0.0
 23
0.0
 33
0.0
 16
1.0
 26
0.0
 36
0.0
 17
0.0
 27
1.0
 37
0.0
 76
     0
330
1B
  0
LAYOUT
  5
26
102
{ACAD_REACTORS
330
1A
102
}
330
1A
100
AcDbPlotSettings
  1

  2
none_device
  4

  6

 40
0.0
 41
0.0
 42
0.0
 43
0.0
 44
0.0
 45
0.0
 46
0.0
 47
0.0
 48
0.0
 49
0.0
140
0.0
141
0.0
142
1.0
143
1.0
 70
   688
 72
     0
 73
     0
 74
     5
  7

 75
    16
 76
     0
 77
     2
 78
   300
147
1.0
148
0.0
149
0.0
100
AcDbLayout
  1
Layout2
 70
     1
 71
     2
 10
0.0
 20
0.0
 11
0.0
 21
0.0
 12
0.0
 22
0.0
 32
0.0
 14
0.0
 24
0.0
 34
0.0
 15
0.0
 25
0.0
 35
0.0
146
0.0
 13
0.0
 23
0.0
 33
0.0
 16
1.0
 26
0.0
 36
0.0
 17
0.0
 27
1.0
 37
0.0
 76
     0
330
23
  0
LAYOUT
  5
22
102
{ACAD_REACTORS
330
1A
102
}
330
1A
100
AcDbPlotSettings
  1

  2
none_device
  4

  6

 40
0.0
 41
0.0
 42
0.0
 43
0.0
 44
0.0
 45
0.0
 46
0.0
 47
0.0
 48
0.0
 49
0.0
140
0.0
141
0.0
142
1.0
143
1.0
 70
  1712
 72
     0
 73
     0
 74
     0
  7

 75
     0
 76
     0
 77
     2
 78
   300
147
1.0
148
0.0
149
0.0
100
AcDbLayout
  1
Model
 70
     1
 71
     0
 10
0.0
 20
0.0
 11
12.0
 21
9.0
 12
0.0
 22
0.0
 32
0.0
 14
1.000000000000000E+20
 24
1.000000000000000E+20
 34
1.000000000000000E+20
 15
-1.000000000000000E+20
 25
-1.000000000000000E+20
 35
-1.000000000000000E+20
146
0.0
 13
0.0
 23
0.0
 33
0.0
 16
1.0
 26
0.0
 36
0.0
 17
0.0
 27
1.0
 37
0.0
 76
     0
330
1F
331
29
  0
MATERIAL
  5
3D
102
{ACAD_REACTORS
330
3B
102
}
330
3B
100
AcDbMaterial
  1
ByBlock
 72
     1
 94
      127
  0
MATERIAL
  5
3C
102
{ACAD_REACTORS
330
3B
102
}
330
3B
100
AcDbMaterial
  1
ByLayer
 72
     1
 94
      127
  0
MATERIAL
  5
3E
102
{ACAD_REACTORS
330
3B
102
}
330
3B
100
AcDbMaterial
  1
Global
 72
     1
 94
      127
  0
MLINESTYLE
  5
18
102
{ACAD_REACTORS
330
17
102
}
330
17
100
AcDbMlineStyle
  2
Standard
 70
     0
  3

 62
   256
 51
90.0
 52
90.0
 71
     2
 49
0.5
 62
   256
  6
BYLAYER
 49
-0.5
 62
   256
  6
BYLAYER
  0
ACDBPLACEHOLDER
  5
F
102
{ACAD_REACTORS
330
E
102
}
330
E
  0
VISUALSTYLE
  5
2F
102
{ACAD_REACTORS
330
2A
102
}
330
2A
100
AcDbVisualStyle
  2
2dWireframe
 70
     4
177
     2
291
     0
 71
     0
176
     1
 72
     2
176
     1
 73
     0
176
     1
 90
        0
176
     1
 40
-0.6
176
     1
 41
-30.0
176
     1
 62
     5
 63
     7
421
 16777215
176
     1
 74
     1
176
     1
 91
        4
176
     1
 64
     7
176
     1
 65
   257
176
     1
 75
     1
176
     1
175
     1
176
     1
 42
1.0
176
     1
 92
        0
176
     1
 66
   257
176
     1
 43
1.0
176
     1
 76
     1
176
     1
 77
     6
176
     1
 78
     2
176
     1
 67
     7
176
     1
 79
     5
176
     1
170
     0
176
     1
171
     0
176
     1
290
     0
176
     1
 93
        1
176
     1
 44
0.0
176
     1
173
     0
176
     1
  0
VISUALSTYLE
  5
31
102
{ACAD_REACTORS
330
2A
102
}
330
2A
100
AcDbVisualStyle
  2
3D Hidden
 70
     6
177
     2
291
     0
 71
     1
176
     1
 72
     2
176
     1
 73
     2
176
     1
 90
        0
176
     1
 40
-0.6
176
     1
 41
-30.0
176
     1
 62
     5
 63
     7
421
 16777215
176
     1
 74
     2
176
     1
 91
        2
176
     1
 64
     7
176
     1
 65
   257
176
     1
 75
     2
176
     1
175
     1
176
     1
 42
40.0
176
     1
 92
        0
176
     1
 66
   257
176
     1
 43
1.0
176
     1
 76
     1
176
     1
 77
     6
176
     1
 78
     2
176
     1
 67
     7
176
     1
 79
     3
176
     1
170
     0
176
     1
171
     0
176
     1
290
     0
176
     1
 93
        1
176
     1
 44
0.0
176
     1
173
     0
176
     1
  0
VISUALSTYLE
  5
30
102
{ACAD_REACTORS
330
2A
102
}
330
2A
100
AcDbVisualStyle
  2
3dWireframe
 70
     5
177
     2
291
     0
 71
     0
176
     1
 72
     2
176
     1
 73
     0
176
     1
 90
        0
176
     1
 40
-0.6
176
     1
 41
-30.0
176
     1
 62
     5
 63
     7
421
 16777215
176
     1
 74
     1
176
     1
 91
        4
176
     1
 64
     7
176
     1
 65
   257
176
     1
 75
     1
176
     1
175
     1
176
     1
 42
1.0
176
     1
 92
        0
176
     1
 66
   257
176
     1
 43
1.0
176
     1
 76
     1
176
     1
 77
     6
176
     1
 78
     2
176
     1
 67
     7
176
     1
 79
     5
176
     1
170
     0
176
     1
171
     0
176
     1
290
     0
176
     1
 93
        1
176
     1
 44
0.0
176
     1
173
     0
176
     1
  0
VISUALSTYLE
  5
32
102
{ACAD_REACTORS
330
2A
102
}
330
2A
100
AcDbVisualStyle
  2
Basic
 70
     7
177
     2
291
     1
 71
     1
176
     1
 72
     0
176
     1
 73
     1
176
     1
 90
        0
176
     1
 40
-0.6
176
     1
 41
-30.0
176
     1
 62
     5
 63
     7
421
 16777215
176
     1
 74
     0
176
     1
 91
        4
176
     1
 64
     7
176
     1
 65
   257
176
     1
 75
     1
176
     1
175
     1
176
     1
 42
1.0
176
     1
 92
        8
176
     1
 66
     7
176
     1
 43
1.0
176
     1
 76
     1
176
     1
 77
     6
176
     1
 78
     2
176
     1
 67
     7
176
     1
 79
     5
176
     1
170
     0
176
     1
171
     0
176
     1
290
     0
176
     1
 93
        1
176
     1
 44
0.0
176
     1
173
     0
176
     1
  0
VISUALSTYLE
  5
36
102
{ACAD_REACTORS
330
2A
102
}
330
2A
100
AcDbVisualStyle
  2
Brighten
 70
    12
177
     2
291
     1
 71
     2
176
     1
 72
     2
176
     1
 73
     0
176
     1
 90
        0
176
     1
 40
-0.6
176
     1
 41
-30.0
176
     1
 62
     5
 63
     7
421
 16777215
176
     1
 74
     1
176
     1
 91
        4
176
     1
 64
     7
176
     1
 65
   257
176
     1
 75
     1
176
     1
175
     1
176
     1
 42
1.0
176
     1
 92
        8
176
     1
 66
     7
176
     1
 43
1.0
176
     1
 76
     1
176
     1
 77
     6
176
     1
 78
     2
176
     1
 67
     7
176
     1
 79
     5
176
     1
170
     0
176
     1
171
     0
176
     1
290
     0
176
     1
 93
        1
176
     1
 44
50.0
176
     1
173
     0
176
     1
  0
VISUALSTYLE
  5
3A
102
{ACAD_REACTORS
330
2A
102
}
330
2A
100
AcDbVisualStyle
  2
ColorChange
 70
    16
177
     2
291
     1
 71
     2
176
     1
 72
     2
176
     1
 73
     3
176
     1
 90
        0
176
     1
 40
-0.6
176
     1
 41
-30.0
176
     1
 62
     5
 63
     8
421
  8421504
176
     1
 74
     1
176
     1
 91
        4
176
     1
 64
     7
176
     1
 65
   257
176
     1
 75
     1
176
     1
175
     1
176
     1
 42
1.0
176
     1
 92
        8
176
     1
 66
     8
424
  8421504
176
     1
 43
1.0
176
     1
 76
     1
176
     1
 77
     6
176
     1
 78
     2
176
     1
 67
     7
176
     1
 79
     5
176
     1
170
     0
176
     1
171
     0
176
     1
290
     0
176
     1
 93
        1
176
     1
 44
0.0
176
     1
173
     0
176
     1
  0
VISUALSTYLE
  5
34
102
{ACAD_REACTORS
330
2A
102
}
330
2A
100
AcDbVisualStyle
  2
Conceptual
 70
     9
177
     2
291
     0
 71
     3
176
     1
 72
     2
176
     1
 73
     0
176
     1
 90
        0
176
     1
 40
-0.6
176
     1
 41
-30.0
176
     1
 62
     5
 63
     7
421
 16777215
176
     1
 74
     2
176
     1
 91
        2
176
     1
 64
     7
176
     1
 65
   257
176
     1
 75
     1
176
     1
175
     1
176
     1
 42
40.0
176
     1
 92
        8
176
     1
 66
     7
176
     1
 43
1.0
176
     1
 76
     1
176
     1
 77
     6
176
     1
 78
     2
176
     1
 67
     7
176
     1
 79
     3
176
     1
170
     0
176
     1
171
     0
176
     1
290
     0
176
     1
 93
        1
176
     1
 44
0.0
176
     1
173
     0
176
     1
  0
VISUALSTYLE
  5
35
102
{ACAD_REACTORS
330
2A
102
}
330
2A
100
AcDbVisualStyle
  2
Dim
 70
    11
177
     2
291
     1
 71
     2
176
     1
 72
     2
176
     1
 73
     0
176
     1
 90
        0
176
     1
 40
-0.6
176
     1
 41
-30.0
176
     1
 62
     5
 63
     7
421
 16777215
176
     1
 74
     1
176
     1
 91
        4
176
     1
 64
     7
176
     1
 65
   257
176
     1
 75
     1
176
     1
175
     1
176
     1
 42
1.0
176
     1
 92
        8
176
     1
 66
     7
176
     1
 43
1.0
176
     1
 76
     1
176
     1
 77
     6
176
     1
 78
     2
176
     1
 67
     7
176
     1
 79
     5
176
     1
170
     0
176
     1
171
     0
176
     1
290
     0
176
     1
 93
        1
176
     1
 44
-50.0
176
     1
173
     0
176
     1
  0
VISUALSTYLE
  5
39
102
{ACAD_REACTORS
330
2A
102
}
330
2A
100
AcDbVisualStyle
  2
Facepattern
 70
    15
177
     2
291
     1
 71
     2
176
     1
 72
     2
176
     1
 73
     0
176
     1
 90
        0
176
     1
 40
-0.6
176
     1
 41
-30.0
176
     1
 62
     5
 63
     7
421
 16777215
176
     1
 74
     1
176
     1
 91
        4
176
     1
 64
     7
176
     1
 65
   257
176
     1
 75
     1
176
     1
175
     1
176
     1
 42
1.0
176
     1
 92
        8
176
     1
 66
     7
176
     1
 43
1.0
176
     1
 76
     1
176
     1
 77
     6
176
     1
 78
     2
176
     1
 67
     7
176
     1
 79
     5
176
     1
170
     0
176
     1
171
     0
176
     1
290
     0
176
     1
 93
        1
176
     1
 44
0.0
176
     1
173
     0
176
     1
  0
VISUALSTYLE
  5
2B
102
{ACAD_REACTORS
330
2A
102
}
330
2A
100
AcDbVisualStyle
  2
Flat
 70
     0
177
     2
291
     1
 71
     2
176
     1
 72
     1
176
     1
 73
     1
176
     1
 90
        2
176
     1
 40
-0.6
176
     1
 41
30.0
176
     1
 62
     5
 63
     7
421
 16777215
176
     1
 74
     0
176
     1
 91
        4
176
     1
 64
     7
176
     1
 65
   257
176
     1
 75
     1
176
     1
175
     1
176
     1
 42
1.0
176
     1
 92
        8
176
     1
 66
     7
176
     1
 43
1.0
176
     1
 76
     1
176
     1
 77
     6
176
     1
 78
     2
176
     1
 67
     7
176
     1
 79
     5
176
     1
170
     0
176
     1
171
     0
176
     1
290
     0
176
     1
 93
       13
176
     1
 44
0.0
176
     1
173
     0
176
     1
  0
VISUALSTYLE
  5
2C
102
{ACAD_REACTORS
330
2A
102
}
330
2A
100
AcDbVisualStyle
  2
FlatWithEdges
 70
     1
177
     2
291
     1
 71
     2
176
     1
 72
     1
176
     1
 73
     1
176
     1
 90
        2
176
     1
 40
-0.6
176
     1
 41
30.0
176
     1
 62
     5
 63
     7
421
 16777215
176
     1
 74
     1
176
     1
 91
        4
176
     1
 64
     7
176
     1
 65
   257
176
     1
 75
     1
176
     1
175
     1
176
     1
 42
1.0
176
     1
 92
        0
176
     1
 66
   257
176
     1
 43
1.0
176
     1
 76
     1
176
     1
 77
     6
176
     1
 78
     2
176
     1
 67
     7
176
     1
 79
     5
176
     1
170
     0
176
     1
171
     0
176
     1
290
     0
176
     1
 93
       13
176
     1
 44
0.0
176
     1
173
     0
176
     1
  0
VISUALSTYLE
  5
2D
102
{ACAD_REACTORS
330
2A
102
}
330
2A
100
AcDbVisualStyle
  2
Gouraud
 70
     2
177
     2
291
     1
 71
     2
176
     1
 72
     2
176
     1
 73
     1
176
     1
 90
        2
176
     1
 40
-0.6
176
     1
 41
30.0
176
     1
 62
     5
 63
     7
421
 16777215
176
     1
 74
     0
176
     1
 91
        4
176
     1
 64
     7
176
     1
 65
   257
176
     1
 75
     1
176
     1
175
     1
176
     1
 42
1.0
176
     1
 92
        0
176
     1
 66
     7
176
     1
 43
1.0
176
     1
 76
     1
176
     1
 77
     6
176
     1
 78
     2
176
     1
 67
     7
176
     1
 79
     5
176
     1
170
     0
176
     1
171
     0
176
     1
290
     0
176
     1
 93
       13
176
     1
 44
0.0
176
     1
173
     0
176
     1
  0
VISUALSTYLE
  5
2E
102
{ACAD_REACTORS
330
2A
102
}
330
2A
100
AcDbVisualStyle
  2
GouraudWithEdges
 70
     3
177
     2
291
     1
 71
     2
176
     1
 72
     2
176
     1
 73
     1
176
     1
 90
        2
176
     1
 40
-0.6
176
     1
 41
30.0
176
     1
 62
     5
 63
     7
421
 16777215
176
     1
 74
     1
176
     1
 91
        4
176
     1
 64
     7
176
     1
 65
   257
176
     1
 75
     1
176
     1
175
     1
176
     1
 42
1.0
176
     1
 92
        0
176
     1
 66
   257
176
     1
 43
1.0
176
     1
 76
     1
176
     1
 77
     6
176
     1
 78
     2
176
     1
 67
     7
176
     1
 79
     5
176
     1
170
     0
176
     1
171
     0
176
     1
290
     0
176
     1
 93
       13
176
     1
 44
0.0
176
     1
173
     0
176
     1
  0
VISUALSTYLE
  5
38
102
{ACAD_REACTORS
330
2A
102
}
330
2A
100
AcDbVisualStyle
  2
Linepattern
 70
    14
177
     2
291
     1
 71
     2
176
     1
 72
     2
176
     1
 73
     0
176
     1
 90
        0
176
     1
 40
-0.6
176
     1
 41
-30.0
176
     1
 62
     5
 63
     7
421
 16777215
176
     1
 74
     1
176
     1
 91
        4
176
     1
 64
     7
176
     1
 65
   257
176
     1
 75
     7
176
     1
175
     7
176
     1
 42
1.0
176
     1
 92
        8
176
     1
 66
     7
176
     1
 43
1.0
176
     1
 76
     1
176
     1
 77
     6
176
     1
 78
     2
176
     1
 67
     7
176
     1
 79
     5
176
     1
170
     0
176
     1
171
     0
176
     1
290
     0
176
     1
 93
        1
176
     1
 44
0.0
176
     1
173
     0
176
     1
  0
VISUALSTYLE
  5
33
102
{ACAD_REACTORS
330
2A
102
}
330
2A
100
AcDbVisualStyle
  2
Realistic
 70
     8
177
     2
291
     0
 71
     2
176
     1
 72
     2
176
     1
 73
     0
176
     1
 90
        0
176
     1
 40
-0.6
176
     1
 41
-30.0
176
     1
 62
     5
 63
     7
421
 16777215
176
     1
 74
     1
176
     1
 91
        0
176
     1
 64
     7
176
     1
 65
   257
176
     1
 75
     1
176
     1
175
     1
176
     1
 42
1.0
176
     1
 92
        8
176
     1
 66
     8
424
  7895160
176
     1
 43
1.0
176
     1
 76
     1
176
     1
 77
     6
176
     1
 78
     2
176
     1
 67
     7
176
     1
 79
     5
176
     1
170
     0
176
     1
171
     0
176
     1
290
     0
176
     1
 93
       13
176
     1
 44
0.0
176
     1
173
     0
176
     1
  0
VISUALSTYLE
  5
37
102
{ACAD_REACTORS
330
2A
102
}
330
2A
100
AcDbVisualStyle
  2
Thicken
 70
    13
177
     2
291
     1
 71
     2
176
     1
 72
     2
176
     1
 73
     0
176
     1
 90
        0
176
     1
 40
-0.6
176
     1
 41
-30.0
176
     1
 62
     5
 63
     7
421
 16777215
176
     1
 74
     1
176
     1
 91
        4
176
     1
 64
     7
176
     1
 65
   257
176
     1
 75
     1
176
     1
175
     1
176
     1
 42
1.0
176
     1
 92
       12
176
     1
 66
     7
176
     1
 43
1.0
176
     1
 76
     1
176
     1
 77
     6
176
     1
 78
     2
176
     1
 67
     7
176
     1
 79
     5
176
     1
170
     0
176
     1
171
     0
176
     1
290
     0
176
     1
 93
        1
176
     1
 44
0.0
176
     1
173
     0
176
     1
  0
ENDSEC
  0
EOF
